<svg width="58" height="50" viewBox="0 0 58 50" fill="none" xmlns="http://www.w3.org/2000/svg">
<g opacity="0.8">
<path d="M10.1637 49.8172C10.6149 49.8968 11.045 49.5968 11.125 49.1461C11.2053 48.6952 10.9047 48.2647 10.4539 48.1847C5.60886 47.3234 2.09223 43.1203 2.09223 38.1907C2.09223 32.5932 6.64594 28.0395 12.2434 28.0395C13.5784 28.0395 14.8539 28.2991 16.0226 28.7696L15.5166 29.7825C14.501 29.3857 13.3977 29.1655 12.2434 29.1655C7.2669 29.1655 3.2183 33.2141 3.2183 38.1907C3.2183 43.1671 7.2669 47.2157 12.2434 47.2157C16.9401 47.2157 20.8086 43.6089 21.2287 39.0198H22.3596C21.9907 43.585 18.6037 47.3722 14.0329 48.1847C13.582 48.2649 13.2814 48.6952 13.3617 49.1461C13.4331 49.5479 13.7827 49.8302 14.177 49.8302C14.2252 49.8302 14.2741 49.826 14.3231 49.8172C18.9677 48.9915 22.5607 45.5264 23.6833 41.1249C24.2009 41.6022 24.8444 41.9445 25.5578 42.0959V43.7903H24.8315C24.3735 43.7903 24.0024 44.1614 24.0024 44.6194C24.0024 45.0774 24.3735 45.4486 24.8315 45.4486H27.9424C28.4004 45.4486 28.7715 45.0774 28.7715 44.6194C28.7715 44.1614 28.4004 43.7903 27.9424 43.7903H27.2162V42.0959C29.0209 41.713 30.3794 40.1077 30.3794 38.1906C30.3794 37.2971 30.0843 36.4713 29.5866 35.8054L39.3938 24.943L40.3285 27.4458C36.2545 29.3102 33.4169 33.4251 33.4169 38.1906C33.4169 44.7022 38.7146 50 45.2263 50C51.738 50 57.0357 44.7022 57.0357 38.1906C57.0357 31.6789 51.738 26.3811 45.2263 26.3811C44.065 26.3811 42.9425 26.5505 41.8816 26.8644L39.0432 19.2639H43.7936C44.1212 20.0616 44.9057 20.6253 45.8201 20.6253C45.9975 20.6253 46.1419 20.7697 46.1419 20.9471C46.1419 21.1245 45.9975 21.2689 45.8201 21.2689H44.8108C43.603 21.2689 42.6203 22.2517 42.6203 23.4595C42.6203 24.6673 43.6031 25.65 44.8108 25.65H45.8201C48.4134 25.65 50.5231 23.5402 50.5231 20.947C50.5231 18.3538 48.4134 16.244 45.8201 16.244C44.9057 16.244 44.1212 16.8077 43.7936 17.6054H37.8484C37.2815 17.6054 36.867 18.1743 37.0717 18.7246L37.9127 20.9764H21.0034L20.4756 19.5629C20.8119 19.3542 21.0981 19.0637 21.2999 18.7086C21.4327 18.4748 21.6823 18.3294 21.9514 18.3294H25.4771C26.4528 18.3294 27.1176 17.3396 26.75 16.4365L26.7499 16.4364C26.1834 15.0462 24.8473 14.1479 23.346 14.1479H14.8518C13.719 14.1479 12.7974 15.0696 12.7974 16.2024C12.7974 18.256 14.4682 19.9267 16.5219 19.9267H18.8413L19.525 21.7577L16.7657 27.2816C15.3721 26.7016 13.8446 26.3808 12.2435 26.3808C5.73168 26.3813 0.43396 31.679 0.43396 38.1907C0.43396 43.9254 4.5259 48.8151 10.1637 49.8172ZM45.2263 28.0395C50.8237 28.0395 55.3774 32.5932 55.3774 38.1907C55.3774 43.7881 50.8237 48.3418 45.2263 48.3418C39.6289 48.3418 35.0752 43.7881 35.0752 38.1907C35.0752 34.1358 37.4653 30.6291 40.9105 29.0041L41.3058 30.0626C38.2877 31.5243 36.2013 34.6183 36.2013 38.1907C36.2013 43.1671 40.25 47.2157 45.2264 47.2157C49.4072 47.2157 53.0135 44.3803 53.9964 40.3204C54.1042 39.8755 53.8308 39.4273 53.3857 39.3195C52.9406 39.2114 52.4926 39.4852 52.3848 39.9302C51.5827 43.2434 48.639 45.5574 45.2264 45.5574C41.1644 45.5574 37.8596 42.2525 37.8596 38.1906C37.8596 35.3292 39.5005 32.8454 41.8898 31.626L43.6583 36.3618C43.1431 36.8042 42.8156 37.4597 42.8156 38.1907C42.8156 39.5199 43.897 40.6014 45.2264 40.6014C46.5558 40.6014 47.6373 39.52 47.6373 38.1907C47.6373 36.8613 46.5558 35.7799 45.2264 35.7799C45.2213 35.7799 45.2163 35.7802 45.2114 35.7802L43.4424 31.0433C44.014 30.9006 44.6113 30.8236 45.2265 30.8236C48.6391 30.8236 51.5828 33.1377 52.3849 36.4509C52.4927 36.8958 52.9406 37.1693 53.3859 37.0616C53.8309 36.9538 54.1043 36.5058 53.9965 36.0607C53.0136 32.0007 49.4072 29.1653 45.2265 29.1653C44.4074 29.1653 43.6145 29.2769 42.8596 29.4823L42.4635 28.4215C43.342 28.1728 44.2688 28.0395 45.2263 28.0395ZM45.2263 37.4383C45.6413 37.4383 45.9789 37.7759 45.9789 38.1908C45.9789 38.6057 45.6413 38.9433 45.2263 38.9433C44.8114 38.9433 44.4738 38.6057 44.4738 38.1908C44.4738 37.7759 44.8114 37.4383 45.2263 37.4383ZM17.5052 29.5125C20.2116 31.1596 22.0904 34.0367 22.3605 37.3616H21.2287C20.9646 34.477 19.3382 31.9817 16.9993 30.5252L17.5052 29.5125ZM14.5072 37.3615C14.3936 37.0523 14.2178 36.773 13.9959 36.5378L16.2545 32.0164C18.0534 33.1891 19.3106 35.1248 19.5623 37.3615H14.5072ZM12.2434 37.4383C12.6583 37.4383 12.9959 37.7759 12.9959 38.1908C12.9959 38.6057 12.6583 38.9433 12.2434 38.9433C11.8284 38.9433 11.4907 38.6057 11.4907 38.1908C11.4907 37.7759 11.8284 37.4383 12.2434 37.4383ZM12.2434 45.5575C8.18138 45.5575 4.87657 42.2526 4.87657 38.1907C4.87657 34.1286 8.18138 30.8238 12.2434 30.8238C13.1316 30.8238 13.9837 30.9818 14.7729 31.2713L12.5129 35.7954C12.4243 35.7854 12.3345 35.7799 12.2434 35.7799C10.9141 35.7799 9.83247 36.8613 9.83247 38.1907C9.83247 39.52 10.914 40.6014 12.2434 40.6014C13.2814 40.6014 14.1684 39.9419 14.5072 39.0198H19.5623C19.1487 42.6927 16.025 45.5575 12.2434 45.5575ZM27.2162 40.37V38.1907C27.2162 37.7327 26.8451 37.3615 26.3871 37.3615C25.929 37.3615 25.5579 37.7327 25.5579 38.1907V40.37C24.6795 40.0345 24.0529 39.1855 24.0529 38.1907C24.0529 36.9036 25.1 35.8566 26.3871 35.8566C27.6741 35.8566 28.7211 36.9037 28.7211 38.1907C28.7211 39.1855 28.0945 40.0345 27.2162 40.37ZM45.8201 17.9026C47.499 17.9026 48.8649 19.2684 48.8649 20.9473C48.8649 22.6263 47.499 23.992 45.8201 23.992H44.8108C44.5173 23.992 44.2785 23.7532 44.2785 23.4598C44.2785 23.1663 44.5173 22.9275 44.8108 22.9275H45.8201C46.9119 22.9275 47.8001 22.0393 47.8001 20.9474C47.8001 19.8556 46.9119 18.9674 45.8201 18.9674C45.5266 18.9674 45.2878 18.7286 45.2878 18.4351C45.2878 18.1414 45.5266 17.9026 45.8201 17.9026ZM38.5319 22.635L38.7402 23.1926L28.3408 34.711C27.7629 34.3852 27.0966 34.1983 26.3872 34.1983C26.2395 34.1983 26.0939 34.207 25.9503 34.2228L21.6229 22.6351H38.5319V22.635ZM14.4556 16.2028C14.4556 15.9843 14.6333 15.8066 14.8517 15.8066H23.3459C24.0188 15.8066 24.6313 16.1355 25.0025 16.6715H21.9513C21.087 16.6715 20.285 17.1384 19.858 17.8897C19.7251 18.1236 19.4754 18.269 19.2063 18.269H16.5217C15.3826 18.2689 14.4556 17.342 14.4556 16.2028ZM20.318 23.8816L24.3749 34.7447C24.1262 34.8905 23.8945 35.062 23.6838 35.2562C22.8968 32.1902 20.9062 29.6019 18.2481 28.0257L20.318 23.8816Z" fill="black"/>
<path d="M30.4012 20.124C30.3129 20.124 30.2223 20.1028 30.1396 20.0592C29.8992 19.9317 29.7851 19.6488 29.8712 19.3894L32.2124 12.2976H27.8263C27.6183 12.2976 27.4283 12.1824 27.331 11.998C27.2348 11.8135 27.2483 11.591 27.3668 11.4199L35.1105 0.239322C35.2625 0.0201822 35.5521 -0.058082 35.7936 0.0447794C36.0384 0.152113 36.1737 0.417093 36.1167 0.677601L34.5425 7.82535H39.0069C39.2193 7.82535 39.4139 7.9461 39.5089 8.13729C39.6028 8.32848 39.5793 8.55657 39.4496 8.72539L30.8439 19.906C30.7355 20.048 30.57 20.124 30.4012 20.124ZM28.894 11.1795H32.9861C33.1661 11.1795 33.3339 11.2656 33.439 11.411C33.5441 11.5563 33.5731 11.743 33.5161 11.9141L31.962 16.62L37.8709 8.94341H33.847C33.6782 8.94341 33.5172 8.86627 33.411 8.73434C33.3048 8.6024 33.2645 8.42911 33.3003 8.26363L34.4139 3.20889L28.894 11.1795Z" fill="black"/>
</g>
</svg>
