<svg width="68" height="68" viewBox="0 0 68 68" fill="none" xmlns="http://www.w3.org/2000/svg">
<g opacity="0.8" clip-path="url(#clip0)">
<path d="M28.2173 30.6222H32.7508V32.8894H28.2173V30.6222Z" fill="black"/>
<path d="M66.914 27.2335L59.215 26.134C57.8111 25.2716 56.3542 24.4996 54.8522 23.8221C49.8916 21.5752 44.5077 20.4158 39.0616 20.4218H37.7242C31.2971 20.4264 24.9728 22.0392 19.3279 25.113L15.4424 27.2326C10.8942 27.2838 6.43357 28.4935 2.48213 30.7459C0.876276 31.6669 -0.115275 33.3756 -0.118042 35.2263V41.9564C-0.118042 42.5827 0.389263 43.09 1.01555 43.09H4.82127C6.05909 46.6213 9.92522 48.4808 13.4565 47.243C15.4004 46.5618 16.9283 45.0334 17.6095 43.09H47.891C49.1288 46.6213 52.995 48.4808 56.5263 47.243C58.4697 46.5618 59.9981 45.0334 60.6792 43.09H61.086C61.2304 43.09 61.3733 43.0628 61.5075 43.0093L65.1786 41.5363C66.8186 40.8869 67.8927 39.2995 67.8867 37.5364V28.3556C67.8867 27.792 67.4721 27.3137 66.914 27.2335ZM15.6578 41.73C15.1565 44.183 12.7615 45.7653 10.3085 45.264C7.85495 44.7627 6.27262 42.3678 6.77393 39.9143C7.2757 37.4612 9.67064 35.8789 12.1237 36.3802C14.2345 36.8114 15.75 38.6686 15.7495 40.8233C15.7495 41.1277 15.7186 41.4316 15.6578 41.73ZM36.151 40.8233H18.0163C18.0163 37.0674 14.972 34.0226 11.2161 34.0226C7.46017 34.0226 4.41542 37.0674 4.41542 40.8233H2.14869V35.2263C2.15007 34.1882 2.70626 33.2294 3.60742 32.7138C7.30614 30.602 11.4909 29.4905 15.7495 29.4892H36.151V40.8233ZM36.151 27.2224H20.1949L20.4135 27.103C25.2592 24.4696 30.6417 22.9767 36.151 22.7383V27.2224ZM38.4178 22.6885H39.0593C43.6269 22.6834 48.153 23.5505 52.3954 25.2435L50.4165 27.2224H38.4178V22.6885ZM58.7275 41.73C58.2262 44.183 55.8313 45.7653 53.3777 45.264C50.9247 44.7627 49.3424 42.3678 49.8437 39.9143C50.345 37.4612 52.7404 35.8789 55.1934 36.3802C57.3043 36.8114 58.8197 38.6686 58.8193 40.8233C58.8193 41.1277 58.7884 41.4316 58.7275 41.73ZM65.6199 30.6223H62.2196V32.8895H65.6199V37.5364C65.6227 38.3716 65.1136 39.1233 64.3369 39.43L61.086 40.7357C61.086 40.6314 61.0726 40.5281 61.0657 40.4239C61.0588 40.3197 61.0565 40.1974 61.0454 40.084C61.0339 39.9705 61.0113 39.8571 60.9933 39.7441C60.9749 39.6306 60.9615 39.5172 60.9389 39.4144C60.9163 39.311 60.8831 39.1967 60.8536 39.0888C60.8241 38.9813 60.8015 38.8725 60.7673 38.7668C60.7337 38.6617 60.6926 38.5607 60.6543 38.4574C60.6156 38.3545 60.5806 38.248 60.5409 38.1456C60.5012 38.0437 60.4477 37.951 60.4002 37.8546C60.3527 37.7582 60.3061 37.6526 60.2531 37.5553C60.1996 37.458 60.1397 37.375 60.0885 37.2846C60.0377 37.1937 59.9755 37.0904 59.9109 36.9977C59.8459 36.9046 59.7859 36.8312 59.7237 36.7473C59.6614 36.6634 59.5909 36.5647 59.5184 36.4775C59.446 36.3904 59.3782 36.3221 59.3077 36.2506C59.2376 36.1796 59.1592 36.0832 59.0812 36.0039C59.0028 35.9246 58.9258 35.8618 58.8479 35.7917C58.7695 35.7216 58.6855 35.6386 58.5993 35.5648C58.5135 35.4915 58.4259 35.4348 58.3401 35.3702C58.2539 35.3056 58.1676 35.2365 58.0772 35.1761C57.9864 35.1161 57.8845 35.0631 57.7872 34.9994C57.6894 34.9358 57.6101 34.886 57.5183 34.8375C57.4265 34.7887 57.3121 34.7375 57.2079 34.6877C57.1037 34.6378 57.022 34.5936 56.9257 34.553C56.8293 34.5119 56.6987 34.4691 56.5858 34.4285C56.4723 34.3874 56.3985 34.3556 56.3021 34.3252C56.173 34.2855 56.0406 34.2569 55.9087 34.2242C55.8225 34.2039 55.7399 34.1767 55.6528 34.1587C55.5135 34.1301 55.3705 34.1144 55.2289 34.0936C55.145 34.0826 55.0648 34.0641 54.9808 34.0563C54.7539 34.0337 54.5275 34.0212 54.2895 34.0212C50.535 34.0249 47.4925 37.0674 47.4889 40.8219H38.4182V29.4887H50.8855C51.1862 29.4887 51.4744 29.3693 51.6866 29.1566L54.6257 26.2175C55.8594 26.8046 57.0589 27.4609 58.2188 28.1831C58.3526 28.2666 58.502 28.3214 58.6583 28.344L65.6199 29.3379V30.6223Z" fill="black"/>
</g>
<defs>
<clipPath id="clip0">
<rect width="68" height="68" fill="white"/>
</clipPath>
</defs>
</svg>
