<svg width="53" height="20" viewBox="0 0 53 20" fill="none" xmlns="http://www.w3.org/2000/svg">
<path d="M21.7236 7.32349H25.1993V8.95121H21.7236V7.32349Z" fill="black"/>
<path d="M51.3913 4.89048L45.4887 4.10112C44.4124 3.48195 43.2954 2.92767 42.1438 2.44128C38.3408 0.828118 34.2131 -0.00428786 30.0377 1.66093e-05H29.0124C24.0849 0.00332765 19.2363 1.16121 14.9085 3.36805L11.9297 4.88982C8.44269 4.92657 5.0229 5.79507 1.99346 7.4122C0.76231 8.07343 0.00212146 9.30018 0 10.6289V15.4608C0 15.9104 0.388934 16.2746 0.86909 16.2746H3.7868C4.7358 18.8099 7.69983 20.145 10.4072 19.2563C11.8975 18.7672 13.0689 17.6699 13.5911 16.2746H36.8069C37.7559 18.8099 40.72 20.145 43.4273 19.2563C44.9173 18.7672 46.089 17.6699 46.6113 16.2746H46.9231C47.0338 16.2746 47.1434 16.2551 47.2463 16.2167L50.0607 15.1591C51.3181 14.6929 52.1415 13.5533 52.1369 12.2874V5.69607C52.1369 5.29146 51.8191 4.9481 51.3913 4.89048ZM12.0948 15.2982C11.7104 17.0594 9.87432 18.1954 7.99365 17.8355C6.11263 17.4756 4.89951 15.7561 5.28384 13.9946C5.66854 12.2335 7.50466 11.0974 9.38533 11.4574C11.0036 11.7669 12.1655 13.1003 12.1651 14.6472C12.1651 14.8658 12.1415 15.084 12.0948 15.2982ZM27.8063 14.6472H13.903C13.903 11.9507 11.569 9.76473 8.68949 9.76473C5.80997 9.76473 3.47566 11.9507 3.47566 14.6472H1.73783V10.6289C1.73889 9.88359 2.1653 9.19522 2.85619 8.82504C5.69187 7.3089 8.90022 6.51093 12.1651 6.50993H27.8063V14.6472ZM27.8063 4.88254H15.5733L15.7409 4.79678C19.4559 2.90615 23.5825 1.83436 27.8063 1.66317V4.88254ZM29.5441 1.62741H30.036C33.5378 1.62377 37.0078 2.24625 40.2603 3.46175L38.7431 4.88254H29.5441V1.62741ZM45.1149 15.2982C44.7306 17.0594 42.8945 18.1954 41.0134 17.8355C39.1328 17.4756 37.9196 15.7561 38.304 13.9946C38.6883 12.2335 40.5248 11.0974 42.4055 11.4574C44.0238 11.7669 45.1856 13.1003 45.1853 14.6472C45.1853 14.8658 45.1616 15.084 45.1149 15.2982ZM50.3991 7.32347H47.7922V8.95119H50.3991V12.2874C50.4012 12.8871 50.0109 13.4268 49.4155 13.647L46.9231 14.5843C46.9231 14.5095 46.9129 14.4353 46.9076 14.3605C46.9022 14.2857 46.9005 14.1979 46.892 14.1165C46.8832 14.035 46.8658 13.9536 46.852 13.8725C46.8379 13.791 46.8276 13.7095 46.8103 13.6357C46.793 13.5615 46.7675 13.4794 46.7449 13.4019C46.7223 13.3248 46.705 13.2467 46.6788 13.1708C46.653 13.0953 46.6215 13.0228 46.5922 12.9487C46.5625 12.8748 46.5356 12.7983 46.5052 12.7248C46.4748 12.6517 46.4338 12.5851 46.3973 12.5159C46.3609 12.4467 46.3252 12.3709 46.2845 12.301C46.2435 12.2312 46.1976 12.1716 46.1583 12.1067C46.1194 12.0414 46.0717 11.9673 46.0222 11.9007C45.9723 11.8338 45.9264 11.7812 45.8786 11.7209C45.8309 11.6607 45.7768 11.5898 45.7213 11.5272C45.6658 11.4646 45.6138 11.4156 45.5597 11.3643C45.506 11.3133 45.4459 11.2441 45.3861 11.1872C45.326 11.1302 45.267 11.0852 45.2072 11.0349C45.1471 10.9845 45.0827 10.9249 45.0166 10.872C44.9509 10.8193 44.8837 10.7786 44.8179 10.7322C44.7518 10.6859 44.6857 10.6362 44.6164 10.5928C44.5467 10.5498 44.4686 10.5117 44.394 10.466C44.319 10.4203 44.2582 10.3846 44.1878 10.3498C44.1175 10.3147 44.0298 10.2779 43.9499 10.2422C43.87 10.2064 43.8074 10.1746 43.7335 10.1455C43.6596 10.116 43.5595 10.0852 43.4729 10.0561C43.3859 10.0266 43.3294 10.0038 43.2555 9.98193C43.1565 9.95346 43.055 9.93293 42.9539 9.90942C42.8877 9.89485 42.8245 9.87532 42.7576 9.8624C42.6508 9.84188 42.5412 9.83062 42.4327 9.81572C42.3683 9.80777 42.3068 9.79453 42.2425 9.7889C42.0685 9.77267 41.8949 9.76373 41.7125 9.76373C38.834 9.76638 36.5014 11.9507 36.4986 14.6463H29.5445V6.5096H39.1027C39.3332 6.5096 39.5542 6.42385 39.7169 6.2712L41.9702 4.16105C42.916 4.58255 43.8357 5.05372 44.7249 5.57224C44.8275 5.63217 44.942 5.67157 45.0619 5.68779L50.3991 6.40133V7.32347Z" fill="black"/>
</svg>
