<svg width="50" height="50" viewBox="0 0 50 50" fill="none" xmlns="http://www.w3.org/2000/svg">
<g opacity="0.8">
<path d="M29.1666 5H12.5C12.0398 5 11.6666 5.37313 11.6666 5.83333V15.8333C11.6666 16.2935 12.0398 16.6667 12.5 16.6667H29.1666C29.6268 16.6667 30 16.2935 30 15.8333V5.83333C30 5.37313 29.6268 5 29.1666 5ZM28.3333 15H13.3333V6.66667H28.3333V15Z" fill="#000"/>
<path d="M26.6667 11.6667H25V13.3334H26.6667V11.6667Z" fill="#000"/>
<path d="M23.3333 11.6667H21.6666V13.3334H23.3333V11.6667Z" fill="#000"/>
<path d="M20 11.6667H18.3334V13.3334H20V11.6667Z" fill="#000"/>
<path d="M26.6666 28.3333H23.5741L27.4008 21.2283C27.6192 20.8232 27.468 20.3178 27.063 20.0993C26.7829 19.9482 26.4413 19.9698 26.1825 20.155L14.5158 28.4883C14.1412 28.7556 14.0541 29.2761 14.3215 29.6507C14.478 29.8699 14.7307 30.0001 15 30H18.0925L14.2658 37.105C14.0474 37.5101 14.1986 38.0155 14.6036 38.2341C14.8837 38.3851 15.2253 38.3636 15.4841 38.1783L27.1508 29.845C27.5254 29.5777 27.6125 29.0573 27.3451 28.6826C27.1886 28.4634 26.9359 28.3333 26.6666 28.3333ZM17.4341 34.7375L20.2216 29.5617C20.4398 29.1565 20.2881 28.6511 19.8829 28.4329C19.7613 28.3675 19.6255 28.3333 19.4875 28.3333H17.6L24.2325 23.5958L21.445 28.7717C21.2268 29.1769 21.3785 29.6823 21.7837 29.9004C21.9053 29.9658 22.0411 30 22.1791 30H24.0666L17.4341 34.7375Z" fill="#000"/>
<path d="M45 4.16667H44.1666V0.833333C44.1666 0.373125 43.7935 0 43.3333 0C42.8731 0 42.5 0.373125 42.5 0.833333V4.16667H40.8333V0.833333C40.8333 0.373125 40.4602 0 40 0C39.5398 0 39.1666 0.373125 39.1666 0.833333V4.16667H38.3333C37.8731 4.16667 37.5 4.53979 37.5 5V10C37.5025 11.9793 38.8946 13.6847 40.8333 14.0833V38.3333C40.8333 39.0236 40.2736 39.5833 39.5833 39.5833C38.893 39.5833 38.3333 39.0236 38.3333 38.3333V19.7067C38.3314 18.5299 37.624 17.469 36.5383 17.015L34.1666 16.0958V4.16667C34.1639 1.86667 32.3 0.00270833 30 0H11.6666C9.36663 0.00270833 7.50267 1.86667 7.49996 4.16667V43.3333H4.99996C4.53975 43.3333 4.16663 43.7065 4.16663 44.1667V49.1667C4.16663 49.6269 4.53975 50 4.99996 50H36.6666C37.1268 50 37.5 49.6269 37.5 49.1667V44.1667C37.5 43.7065 37.1268 43.3333 36.6666 43.3333H34.1666V17.8833L35.9091 18.5583C36.3685 18.7552 36.6664 19.2069 36.6666 19.7067V38.3333C36.6666 39.9442 37.9725 41.25 39.5833 41.25C41.1941 41.25 42.5 39.9442 42.5 38.3333V14.0833C44.4386 13.6847 45.8308 11.9793 45.8333 10V5C45.8333 4.53979 45.4602 4.16667 45 4.16667ZM9.16663 4.16667C9.16663 2.78594 10.2859 1.66667 11.6666 1.66667H30C31.3807 1.66667 32.5 2.78594 32.5 4.16667V43.3333H9.16663V4.16667ZM35.8333 45V48.3333H5.83329V45H35.8333ZM44.1666 10C44.1666 11.3807 43.0474 12.5 41.6666 12.5C40.2859 12.5 39.1666 11.3807 39.1666 10V5.83333H44.1666V10Z" fill="#000"/>
</g>
</svg>
