<svg id="Group_86" data-name="Group 86" xmlns="http://www.w3.org/2000/svg" xmlns:xlink="http://www.w3.org/1999/xlink" width="121.581" height="178.596" viewBox="0 0 121.581 178.596">
  <defs>
    <clipPath id="clip-path">
      <rect id="Rectangle_90" data-name="Rectangle 90" width="121.581" height="178.596" fill="none"/>
    </clipPath>
  </defs>
  <g id="Group_85" data-name="Group 85" clip-path="url(#clip-path)">
    <path id="Path_422" data-name="Path 422" d="M22.942,267.7a11.064,11.064,0,0,0,.286-1.519c.132-.931.222-1.87.322-2.8.169-1.572.4-4.179,1.16-5.56a32.148,32.148,0,0,1,10.623-11.864l1.188-.763.851,1.1a74.915,74.915,0,0,0,5.54,6.064,77.434,77.434,0,0,1,5.756,6.31l.4.522-.135.642c-1.3,6.171-2.688,12.346-4.168,18.477-.987,4.092-2.012,8.219-3.223,12.255-.425,1.417-.879,2.874-1.443,4.248-.373.91-.92,2.206-1.932,2.59-8.5,3.22-20.581-.48-23.745-9.241l-.08-.221,0-.236c-.086-4.834-.275-8.556,2.142-12.947a23.062,23.062,0,0,1,4.161-4.834c.765-.738,1.543-1.467,2.3-2.219" transform="translate(-7.306 -125.262)" fill="#1d1d1b" fill-rule="evenodd"/>
    <path id="Path_423" data-name="Path 423" d="M37.746,249.238a30.579,30.579,0,0,0-10.122,11.333c-1.031,1.866-.985,7.97-1.778,9.971-2.179,2.207-5.258,4.805-6.446,6.962-2.117,3.845-2.06,6.816-1.964,12.232,2.915,8.071,14.195,11.242,21.776,8.37,2.355-.893,9.831-36.492,9.831-36.492-2.794-3.616-8.5-8.759-11.3-12.375" transform="translate(-8.889 -127.33)" fill="#facb99" fill-rule="evenodd"/>
    <path id="Path_424" data-name="Path 424" d="M20.391,268.027a10.356,10.356,0,0,0,.271-1.475c.12-.9.2-1.81.288-2.715.153-1.56-.41-4.492.349-5.866,2.95-5.33,6.841-8.112,11.552-11.314l2.492.383a75.172,75.172,0,0,0,5.541,6.064,77.247,77.247,0,0,1,5.756,6.31l.459.594-.227.713c-1.8,5.636-3.523,11.321-5.147,17.005-.79,2.769-1.559,5.547-2.261,8.339l-.975,3.88-1.842-3.559c-2.136-4.131-6.148-6.646-10.609-7.958a26.462,26.462,0,0,0-5.95-1.03,14.738,14.738,0,0,0-3.939.2l-5.822-.46c2.1-3.807,7.007-5.982,10.063-9.116" transform="translate(-5.276 -126.011)" fill-rule="evenodd"/>
    <path id="Path_425" data-name="Path 425" d="M39.835,249.238a31.532,31.532,0,0,0-10.743,11.147c-1.033,1.866-.884,7.727-1.677,9.729a40.393,40.393,0,0,0-5.927,7.39c3.841-.941,17.284.009,22.212,9.54,2.571-10.229,7.431-25.43,7.431-25.43-2.794-3.616-8.5-8.759-11.3-12.375" transform="translate(-10.978 -127.33)" fill="#59bceb" fill-rule="evenodd"/>
    <path id="Path_426" data-name="Path 426" d="M34.912,275.411c7.118-7.115.527-11.769-2.119-6.984-1.033,1.865.127,9.759-.666,11.762-2.178,2.206-9.449,3.964-10.637,6.12,3.841-.941,17.284.009,22.212,9.539,2.57-10.229,7.431-25.431,7.431-25.431-2.794-3.615-12.922,5.042-16.22,4.993" transform="translate(-10.978 -136.135)" fill="#82c1eb" fill-rule="evenodd"/>
    <path id="Path_427" data-name="Path 427" d="M41.122,249.238a31.532,31.532,0,0,0-10.743,11.147c-1.033,1.866-.884,7.727-1.677,9.729a49.716,49.716,0,0,0-4.694,5.48c3.2-1.381,6.242-3.189,8.046-6.193a5.02,5.02,0,0,0,.495-2.155c.036-2.492-.525-4.871.083-7.348.932-3.8,7.464-5.6,9.693-8.524a5.646,5.646,0,0,0-.385-1.131c-.292-.345-.566-.682-.817-1.006" transform="translate(-12.265 -127.33)" fill="#bae2f9" fill-rule="evenodd"/>
    <path id="Path_428" data-name="Path 428" d="M128.4,178.423a5.648,5.648,0,0,1,1.526,2.521c1.2,4.305-3.149,8.858-6.212,11.412a52.782,52.782,0,0,1-16.941,9.09,50.639,50.639,0,0,1-4.921,1.341,25.177,25.177,0,0,1-8.05.64,6.189,6.189,0,0,1-4.586-2.5c-1.2-1.842-.973-4.221-.488-6.253a46.542,46.542,0,0,1,2.544-7.076l.052-.124.073-.113c1.988-3,2.558-7.74,2.876-11.23.214-2.346.338-4.7.549-7.043a29.436,29.436,0,0,1,1.009-6.058l.238-.762.787-.224c13.114-3.733,25.759-8.865,38.876-12.6l3.625-1.033-1.9,3.165a129.316,129.316,0,0,0-6.777,12.121,25.849,25.849,0,0,0-2.794,10.827,15.76,15.76,0,0,0,.517,3.9" transform="translate(-45.13 -75.819)" fill-rule="evenodd"/>
    <path id="Path_429" data-name="Path 429" d="M137.731,153.386c-6.247,10.393-11.738,19.27-9.1,28.361,6.676,5.712-9.176,18.594-25.514,22.155-15.293,3.2-12.43-4.784-8.87-13.219,4.158-6.287,2.733-18.708,4.609-24.7,13.156-3.746,25.719-8.854,38.875-12.6" transform="translate(-46.706 -78.361)" fill="#fdfbe7" fill-rule="evenodd"/>
    <path id="Path_430" data-name="Path 430" d="M139.232,153.386c-6.247,10.393-12.684,19.58-10.046,28.671,6.678,5.712-8.23,18.283-24.568,21.845-15.293,3.2-9.925,3.825-6.364-4.609,4.292-6.086,1.36-27.4,2.1-33.307,13.156-3.746,25.719-8.854,38.875-12.6" transform="translate(-48.207 -78.361)" fill="#ec9e58" fill-rule="evenodd"/>
    <path id="Path_431" data-name="Path 431" d="M140.006,153.386c-6.247,10.393-18.636,22.521-16,31.613,6.678,5.712-2.277,15.342-18.616,18.9-15.293,3.2-8.413,4.528-4.854-3.907,5.677-6.262.436-27.993.592-34.01,13.156-3.746,25.719-8.854,38.875-12.6" transform="translate(-48.981 -78.361)" fill="#fbd0a4" fill-rule="evenodd"/>
    <path id="Path_432" data-name="Path 432" d="M126.123,200.489c-2.107,8.06-1.214,13.315-.329,20.341,1.062.91-26.077,23.175-17.7,3.32,2.687-2.966,2.723-9.093,1.924-15.6,4.238-.771,10.215-2.208,12.926-4.207a13.579,13.579,0,0,0,2.4-2.882q.225-.326.449-.655Z" transform="translate(-54.403 -102.425)" fill="#fbd0a4" fill-rule="evenodd"/>
    <path id="Path_433" data-name="Path 433" d="M112.337,209.805l-1.345-1.149-.942,1.487c-1.647,2.6-4.661,4.617-7.292,6.191-1.97,1.179-4.012,2.265-6.048,3.334-2.508,1.314-5.029,2.607-7.534,3.929a12.717,12.717,0,0,0-2.058,1.716c-1.009.944-1.995,1.915-2.965,2.9s-1.93,1.975-2.848,3c-.208.23-.491.541-.768.873-.507-3.219-2.125-7.464-3.468-8.945a1.56,1.56,0,0,1-.259-.39,5.642,5.642,0,0,1-.226-2.366,20.535,20.535,0,0,0-.02-3.819l-.429-3.1-2.181,2.321a35.49,35.49,0,0,1-6.249,5.339,67.027,67.027,0,0,1-11.154,5.771l-.851.361-.057.9c-.029,4.209,1.975,8.218,2.238,12.442-2.8,4-1.263,10.468-.86,15.5.487,6.1.957,12.286.939,18.407,0,1.369-.033,2.9-.125,4.471l64.113-5.105c-.18-1.407-.36-2.814-.518-4.224a83.414,83.414,0,0,1-.609-9.34,49.7,49.7,0,0,1,2.746-16.259c2.586-7.662,6.691-15.163,10.893-22.1l1.848-2.083c-8.74-1.6-17.224-4.275-23.971-10.048" transform="translate(-28.426 -106.598)" fill-rule="evenodd"/>
    <path id="Path_434" data-name="Path 434" d="M60.794,281.192l16.706-1.33c.027-.465.065-.938.131-1.431.094.5.186.946.278,1.4l43.986-3.5c-2.135-16.723-2.786-27.175,12.721-52.777a46.151,46.151,0,0,1-21.824-10.3c-3.133,4.943-10.489,8.2-21.444,13.978-.927.49-8.479,8.005-8.859,9.075-.563,1.586-4.236,4.19-4.948,6.767-.321,1.16,1.7,3.605,1.495,4.855A174.9,174.9,0,0,1,74.7,265.406c.5-3.531,2.145-10.656,2.927-17.641.162-1.45-1.86-3.621-1.556-4.947.495-2.158,4.095-4.318,4.492-5.767.594-2.179-1.719-9-3.173-10.6-1.569-1.731-.474-4.527-.864-7.341-3.584,3.815-7.8,7.183-17.92,11.467-.811,12.7,3.033,35.67,2.19,50.618" transform="translate(-29.881 -108.945)" fill="#59bceb" fill-rule="evenodd"/>
    <path id="Path_435" data-name="Path 435" d="M117.245,233.752c-4.869,6.048-10.812,10.5-17.385,15.325l-1.584,1.163-.727-1.782c-.641-1.575-1.216-3.336-1.893-5.053a78.908,78.908,0,0,1-9.833,3.86c-1.37,3.64-2.13.573-3.681,6.186-.321,1.159.331,4.654.122,5.9-1.13,6.746-5.923,12.219-7.081,16.526.5-3.53.1-10.494.878-17.477.162-1.451-2.037-4.314-1.733-5.638.388-1.693,2.773-3.483,3.015-5.1a9.718,9.718,0,0,1-4.009-3.322,37.127,37.127,0,0,0-3.384,4.148l-1.82,2.41-.848-2.859c-1.448-4.889-5.077-5.151-6.013-1.89-2.193,7.634-1.887,32.027-1.7,45.654l18.172-1.447a6.9,6.9,0,0,0,.372-1.451,5.125,5.125,0,0,0,.5,1.382l43.469-3.462c-2.9-14.67-9-40.9,1.65-47.934-.7-2-3.312-3.557-6.486-5.138" transform="translate(-30.366 -119.418)" fill="#82c1eb" fill-rule="evenodd"/>
    <path id="Path_436" data-name="Path 436" d="M98.253,242.776v0h0Z" transform="translate(-50.195 -124.029)" fill="#82c1eb" fill-rule="evenodd"/>
    <path id="Path_437" data-name="Path 437" d="M112.791,213.251a46.165,46.165,0,0,0,21.824,10.3q-1.723,2.842-3.183,5.443a30.108,30.108,0,0,0-13.767-7.648c-4.178-1.023-10.017-.662-14.213-.519,4.4-2.5,7.555-4.763,9.339-7.575M79.382,243.306a10.4,10.4,0,0,1,3.119-5c.673-.684,1.419-1.363,2.2-2.033s1.623-1.335,2.46-1.985l0,0c.145-.113.292-.226.438-.338-.637.221-1.276.44-1.922.661l-.038.013,0,0-.11.037-2.505.857a3.656,3.656,0,0,0-.539.784,1.93,1.93,0,0,1-.124.279,4.268,4.268,0,0,1-.356.552c-1.177,1.585-3.869,3.77-4.469,5.938-.321,1.159,1.7,3.6,1.495,4.854-.371,2.213-.842,4.394-1.347,6.476a50.43,50.43,0,0,0,2.336-4.567c.9-2.153-1.062-4.2-.64-6.527m-20.891-8.759c0-1.41.034-2.74.113-3.973,10.119-4.284,14.336-7.652,17.92-11.467.39,2.814-.7,5.611.864,7.341a2.95,2.95,0,0,1,.212.262c-7.483,1.043-15.065,2.1-19.109,7.836" transform="translate(-29.882 -108.945)" fill="#bae2f9" fill-rule="evenodd"/>
    <path id="Path_438" data-name="Path 438" d="M86.062,223.633a9.242,9.242,0,0,1,.882.461l.286.174.182.278c1.274,1.952,2.167,5.61,2.566,7.919l.369,2.141-2.189-.466c-3.678-.781-5.705-2.264-7.184-4.337a37.149,37.149,0,0,0-3.385,4.147l-1.82,2.412-.847-2.86c-1.315-4.437-1.363-8.834-1.491-13.369,2.95-2.922,8.133-7.316,12.064-8.476l1.809-.534.129,1.825a14.831,14.831,0,0,1-.081,2.214c-.085.989-.2,1.978-.326,2.964-.141,1.114-.3,2.23-.486,3.339a11.775,11.775,0,0,1-.469,2.148Z" transform="translate(-37.514 -107.859)" fill-rule="evenodd"/>
    <path id="Path_439" data-name="Path 439" d="M87.873,215.077c-2.514.741-8.95,6.012-10.635,7.683.108,3.822-.382,7.426,1.08,12.353a30.946,30.946,0,0,1,4.255-4.974c-.569-1.1-1.111-2.771-1.681-3.874-.3.319-.9,1.665-1.63,2.919a9.2,9.2,0,0,1,1.78-4.46c2.358,5.283,3.268,8.707,9.393,10.009-.369-2.131-1.257-5.7-2.356-7.382-.815-.5-5.822-2.4-7.8-4.9a21.553,21.553,0,0,0,6.333,2.653,59.781,59.781,0,0,0,1.261-10.027" transform="translate(-39.459 -109.878)" fill="#59bceb" fill-rule="evenodd"/>
    <path id="Path_440" data-name="Path 440" d="M87.873,215.077c-2.514.741-8.95,6.012-10.635,7.683.108,3.822-.382,7.426,1.08,12.353.1-4.308-.957-6.86,2.131-10.989,4.774,1.346,6.6,4.845,9.987,10.609-.369-2.131-1.257-5.7-2.356-7.382-.815-.5-5.822-2.4-7.8-4.9,1.04-2.507,5.558-6.082,7.594-7.374" transform="translate(-39.459 -109.878)" fill="#82c1eb" fill-rule="evenodd"/>
    <path id="Path_441" data-name="Path 441" d="M87.873,215.077c-2.514.741-8.95,6.012-10.635,7.683.031,1.1.013,2.184.006,3.286.021-.051.044-.1.066-.144a17.639,17.639,0,0,1,4.081-5.206,31.478,31.478,0,0,1,6.482-5.619" transform="translate(-39.459 -109.878)" fill="#bae2f9" fill-rule="evenodd"/>
    <path id="Path_442" data-name="Path 442" d="M120.523,223.358a78.636,78.636,0,0,1-9.833,3.86l-2.954,1.01,1.033-2.864a23.124,23.124,0,0,1,1-2.243q.737-1.509,1.559-2.982a38.093,38.093,0,0,1,2.222-3.619c.595-.835,1.459-2,2.595-2.087,6.106-1.525,16.308-5.691,20.579-11.107a1.648,1.648,0,0,1-.244-.828l0-.071.005-.069a2.855,2.855,0,0,0-.028-.417,2.467,2.467,0,0,1,.389-2.02,3.894,3.894,0,0,1,3.14-1.238c1.4.043,2.931.08,3.3.384.332.277-.078,1.723.359,3.277a26.078,26.078,0,0,0,2.263,4.692l.333.692-.4.662c-5.411,8.971-12.748,14.509-21.105,20.64l-1.584,1.162-.727-1.782c-.643-1.575-1.216-3.336-1.894-5.053" transform="translate(-55.04 -101.502)" fill-rule="evenodd"/>
    <path id="Path_443" data-name="Path 443" d="M140.552,203.979c.014.479.859-.112,1.212-.205-3.69,7.135-16.639,12.126-22.881,13.65-1.107-.233-5.362,7.836-6.122,9.944a72.855,72.855,0,0,0,9.879-3.9c-.368-1.576-1.19-3.529-1.558-5.1,2.744,3.027,3.8,7.326,5.306,11.03,7.954-5.835,15.322-11.273,20.711-20.209-.891-1.856-1.771-3.183-2.846-5.17-.154-.285.015-1.7-.163-1.962-.552-.312-2.529-.815-3.531.335-.187.213.029,1.1-.006,1.59" transform="translate(-57.608 -103.029)" fill="#59bceb" fill-rule="evenodd"/>
    <path id="Path_444" data-name="Path 444" d="M142.951,203.095c-4.322,9.887-17.663,13.321-23.9,14.845-1.109-.233-5.525,7.319-6.285,9.427,3.414-4.09,3.983-5.838,6.508-8.153.827-.262.849-.753,1.812-.849,2.744,3.027,3.8,7.326,5.306,11.03,7.954-5.836,15.322-11.273,20.711-20.209-.891-1.856-1.771-3.183-2.846-5.17-.154-.284.015-1.7-.163-1.962-.552-.312-2.529-.815-3.531.335-.185.213,2.247-.01,2.392.705" transform="translate(-57.608 -103.029)" fill="#82c1eb" fill-rule="evenodd"/>
    <path id="Path_445" data-name="Path 445" d="M154.015,226.69c-.1,1.008-13.3,12.709-13.942,12.269a78.128,78.128,0,0,0-3.066-8.036,19.219,19.219,0,0,1,3.8,5.042,107.587,107.587,0,0,0,13.211-9.274" transform="translate(-69.994 -115.811)" fill="#bae2f9" fill-rule="evenodd"/>
    <path id="Path_446" data-name="Path 446" d="M5.886,305.4l-.069-.416c-.217-1.3-1.263-2.832-1.147-4.166,4.37-2.789,12.011-3.948,17.2-3.26,3.783.5,7.56,3.419,10.5,5.632.98.738,1.957,1.48,2.959,2.19l.256.182.12.285.866,2.047.127.3-.065.323q-.31,1.536-.621,3.074l-.22,1.088-1.118-.219-3.922-.762c-4.662-.574-9.233-1.162-13.943-.712-1.818.174-3.563.356-5.3.608l-.544.8a12.566,12.566,0,0,0-.733,2.82l-.132.951-.989.005a5.945,5.945,0,0,1-2.072-.42,15.553,15.553,0,0,1-2.787-1.483l-.016-.009c-1.213-.742-2.341-3.746-2.6-5.126a17.213,17.213,0,0,0,3.75-3.335l.191-.271.313-.125.012,0" transform="translate(-0.828 -151.917)" fill-rule="evenodd"/>
    <path id="Path_447" data-name="Path 447" d="M36.933,307.489c-4.29-3.041-8.656-7.054-12.942-7.622-3.877-.514-11.43.8-15.2,3.2a12.05,12.05,0,0,0,.424,2.958,34.933,34.933,0,0,1,11.246-.776c-3.455.409-8.739,1.133-11.879,2.389-1.082,1.529-.995,2.153-2.494,3.319.22,1.164.592,3.333,1.023,3.6.287.168,2.5,1.751,4.268,1.744a12.318,12.318,0,0,1,.9-3.267,20.4,20.4,0,0,0-3.3-.425,67.1,67.1,0,0,1,10-1.488c4.819-.462,9.259.106,14.238.719l3.961.77.621-3.075-.866-2.047" transform="translate(-3.112 -153.139)" fill="#e4e4e4" fill-rule="evenodd"/>
    <path id="Path_448" data-name="Path 448" d="M21.422,299.777c-4.053.128-9.579,1.358-12.626,3.3a12,12,0,0,0,.423,2.958,34.947,34.947,0,0,1,11.246-.776c-3.455.409-8.739,1.132-11.879,2.389-1.082,1.529-.994,2.153-2.493,3.319.22,1.164.592,3.333,1.023,3.6.287.168,2.5,1.752,4.268,1.745a15.438,15.438,0,0,1,.336-1.645c-.187-.606-.357-1.216-.479-1.817-.559-.086-1.254-.163-2.256-.23.743-.178,1.452-.33,2.137-.463-.258-1.866.072-3.552,1.911-4.52,3.512-1.847,7.066-2.149,11.205-2.478.645-.051,3.311.123,2.156-.347-1.8-.735-5.659-.485-7.748-.559-7.739-.274-2.191-2.783,2.776-4.475" transform="translate(-3.112 -153.149)" fill="#cccbcb" fill-rule="evenodd"/>
    <path id="Path_449" data-name="Path 449" d="M14.361,301.953A20.336,20.336,0,0,0,8.8,304.191a12.006,12.006,0,0,0,.423,2.958,23.9,23.9,0,0,1,3.644-.671c-1.747-1.571-.385-3.377,1.5-4.525m-.545,5.407a29.967,29.967,0,0,0-5.231,1.4c-1.082,1.529-.995,2.153-2.494,3.319.22,1.165.592,3.333,1.023,3.6.287.168,2.5,1.752,4.268,1.744a15.216,15.216,0,0,1,.315-1.564c-1.436-.732-3.074-1.387-3.375-2.272-.109-.32-.109-1.626.167-1.717.018-1.4,2.206-2.423,3.2-3.19,1.063-.82,2.481-.708,2.123-1.318" transform="translate(-3.112 -154.261)" fill="#fff" fill-rule="evenodd"/>
    <path id="Path_450" data-name="Path 450" d="M171.974,203.095a16.319,16.319,0,0,1-1.162,2.184,15.129,15.129,0,0,1,2.532,2.66,11.741,11.741,0,0,1,1.42,3.365c.465-.685.919-1.389,1.357-2.118-.891-1.856-1.771-3.183-2.846-5.17-.154-.284.015-1.7-.163-1.962-.552-.312-2.529-.815-3.531.335-.185.213,2.247-.01,2.392.705" transform="translate(-86.63 -103.029)" fill="#bae2f9" fill-rule="evenodd"/>
    <path id="Path_451" data-name="Path 451" d="M196.923,259.174l.045,2.106c.085,3.994.809,10.707-.632,14.331-2.382,5.985-9.361,12.943-15.458,15.412l-.435.176-.459-.093a31.118,31.118,0,0,0-6.112-.547,31.252,31.252,0,0,1-5.441-.306c-4.727-.878-7.658-4.374-10.089-8.134l-.516-.8.541-.787a87.725,87.725,0,0,0,8.369-16.4c2.563-6.241,4.819-12.647,7.661-18.771,2.354-5.074,5.449-10.667,9.962-14.248l.567-.45.715.151a19.79,19.79,0,0,1,10.7,6.216c1.757,1.961,3.64,4.921,4.061,7.537.653,4.056-.808,9-2.518,12.692q-.444.962-.958,1.914" transform="translate(-80.629 -117.84)" fill-rule="evenodd"/>
    <path id="Path_452" data-name="Path 452" d="M187.186,233.893c-11.411,9.053-14.82,33.271-25.691,49.094,7.055,10.91,11.309,6.42,20.681,8.337,5.4-2.188,12.279-8.682,14.626-14.584,1.268-3.184.618-9.728.531-13.773-.606.355-1.912,1.931-3.167,2.025,4.284-4.961,7.472-13.239,6.617-18.543-.527-3.268-4.841-10.7-13.6-12.556" transform="translate(-82.504 -119.491)" fill="#fdfbe7" fill-rule="evenodd"/>
    <path id="Path_453" data-name="Path 453" d="M187.186,233.893c-11.411,9.053-14.82,33.271-25.691,49.094,7.055,10.91,8.776,2.04,18.148,3.957,5.405-2.187,14.811-4.3,17.158-10.2,1.268-3.184.618-9.728.531-13.773-.606.355-1.912,1.931-3.167,2.025,4.284-4.961,7.472-13.239,6.617-18.543-.527-3.268-4.841-10.7-13.6-12.556" transform="translate(-82.504 -119.491)" fill="#fbd0a4" fill-rule="evenodd"/>
    <path id="Path_454" data-name="Path 454" d="M206.145,259.241c.11,5.141,1.173,10.323.432,16.3-.952,2.4-3.51,4.816-5.18,6.8l-2.19,2.606-.473-3.318a16.784,16.784,0,0,0-1.776-5.449c-3.631-6.89-11.394-10.785-19.185-11.251l-1.9-.113.553-1.765c1.843-5.875,3.53-11.932,5.958-17.608,2.126-4.97,5.019-10.018,9.589-13.262a17.984,17.984,0,0,1,1.9-1.386c9.478.042,14.579,6.7,17.471,12.646.655,4.056-2.531,10.2-4.242,13.886q-.444.962-.958,1.914" transform="translate(-89.851 -117.908)" fill-rule="evenodd"/>
    <path id="Path_455" data-name="Path 455" d="M196.62,233.893c-3.047,1.38-7.019,2.833-8.958,5.741-4.268,6.4-1.233,15.39-7.7,25.417,11.518.688,20.947,8.084,22.353,17.951a23.7,23.7,0,0,0,3.921-6.262c1.268-3.184.618-9.728.531-13.773-.606.355-1.912,1.931-3.167,2.025,4.284-4.961,7.516-13.913,7.469-19.256a19.679,19.679,0,0,0-14.45-11.843" transform="translate(-91.938 -119.491)" fill="#59bceb" fill-rule="evenodd"/>
    <path id="Path_456" data-name="Path 456" d="M187.271,244.488c-3.88.983-.843,15.712-7.31,25.74,11.518.688,20.947,8.084,22.353,17.951.615-.73,1.19-1.479,1.712-2.235a36.5,36.5,0,0,1-.847-5.637,1.829,1.829,0,0,1,.046-.944c2.709-6.7-9.124-6.423-10.628-10.078.09.2.419-13.461-1.81-13.6,7.207-3.275,14.135-4.8,11.708-6.805-3.649-3.011-8.745-6.034-15.224-4.391" transform="translate(-91.938 -124.666)" fill="#82c1eb" fill-rule="evenodd"/>
    <path id="Path_457" data-name="Path 457" d="M207.262,233.893a38.829,38.829,0,0,0-6.47,3.28,26.054,26.054,0,0,1,15.971,6.358c2.427,2-2.787,3.747-11.125,6.525a33.915,33.915,0,0,0,14.465-2.679c.434,2.715-8.934,18.437-10.336,17.973,1.5,3.656,6.81,2.132,4.1,8.836a1.829,1.829,0,0,0-.046.944,36.5,36.5,0,0,0,.848,5.637,20.751,20.751,0,0,0,2.209-4.027c1.268-3.184.618-9.728.531-13.773-.606.355-1.912,1.931-3.167,2.025,4.284-4.961,7.516-13.913,7.469-19.256a19.68,19.68,0,0,0-14.45-11.843" transform="translate(-102.58 -119.491)" fill="#bae2f9" fill-rule="evenodd"/>
    <path id="Path_458" data-name="Path 458" d="M154.852,217.007a2.8,2.8,0,0,1,.048-.294l.119-.558a3.881,3.881,0,0,1,3.129-4.462,17.891,17.891,0,0,1,9.506,1.562c3.259,1.507,5.961,4.007,6.845,7.5l.185.737-.521.57a77.655,77.655,0,0,0-15.711,26.871l-.272.831-.883.159c-3.047.553-6.259,2.336-9.349.962l-1-.446.154-1.063c.678-4.666,1.113-9.354,1.65-14.035a109.761,109.761,0,0,1,3.258-17.866l.568-1.977,1.73,1.17q.26.178.546.343" transform="translate(-75.071 -108.082)" fill-rule="evenodd"/>
    <path id="Path_459" data-name="Path 459" d="M150.282,251.079c1.562-10.753,1.784-20.938,4.869-31.715,4.143,2.8,12.183,3.708,17.225,3,.142-5.006-7.246-6.964-10.557-7.031-4.31-.087-3.387,4.47,3.656,5.039.663.053,3.129,0,3.492-.509.284-.395-1.528-2.116-4.8-2.174.2.069.077,1.746.253,1.812.567-1.2,1.007-1.338,1.294-1.214,1.756.751,2.008,1.2,1.709,1.391a2.811,2.811,0,0,1-1.328.145c-4.959-.378-6.291-2.76-5.02-3.2,3.334-1.163,10.261,2.325,10.128,5.1-2.984.764-11.169-.43-13.205-2.3.074-.381-.009-.541.07-.912a4.29,4.29,0,0,0,2.456,1.162,7.548,7.548,0,0,1-1.813-1.389c-1.362-1.256-.039-3.451,1.354-3.65,4.915-.7,13.131,1.822,14.69,7.977a79.391,79.391,0,0,0-16.018,27.4c-2.934.532-5.982,2.167-8.453,1.068" transform="translate(-76.776 -109.595)" fill="#b6cade" fill-rule="evenodd"/>
    <path id="Path_460" data-name="Path 460" d="M150.282,251.079c1.562-10.753,2.617-19.428,5.7-30.2,4.145,2.8,11.35,2.2,16.392,1.49.142-5.006-7.145-7.267-10.454-7.333-4.311-.087-3.1,2.93-1.4,4.643a7.548,7.548,0,0,1-1.813-1.389c-1.362-1.256-.039-3.451,1.354-3.65,4.915-.7,13.131,1.822,14.69,7.977q-.406.444-.807.9c-.256.291-5.843,2.047-6.1,2.345-6.241,7.351-9.589,14.131-9.115,24.152-2.934.532-5.982,2.167-8.453,1.068" transform="translate(-76.776 -109.595)" fill="#fff" fill-rule="evenodd"/>
    <path id="Path_461" data-name="Path 461" d="M162.928,233.235c-.18-.044-.356-.093-.535-.145-.116.175-.234.348-.343.524-.072-.018-.146-.036-.216-.055-.055.091-.109.181-.157.271.073.015.141.035.215.048-.157.268-.312.533-.464.8-.076-.015-.146-.03-.215-.048-.052.09-.1.175-.151.262.069.016.14.038.212.053-.191.352-.375.706-.56,1.057l-.211-.046c-.042.093-.091.178-.136.266.069.015.14.028.212.043-.138.272-.262.538-.387.8l-.21-.038c-.042.086-.084.177-.12.266.066.013.137.028.209.041-.165.358-.324.717-.482,1.074-.068-.016-.139-.028-.206-.042-.039.092-.075.177-.109.269.066.009.136.026.206.039-.109.27-.218.536-.325.806-.067-.014-.137-.023-.2-.036-.035.09-.071.183-.1.271.066.013.133.023.2.034q-.211.54-.4,1.077l-.2-.031c-.031.09-.063.181-.091.27.065.014.131.024.2.034-.1.271-.186.538-.276.807-.066-.008-.132-.019-.2-.029-.029.1-.058.184-.087.274.062.008.13.016.2.026-.112.363-.218.724-.322,1.088-.067-.009-.13-.021-.195-.033-.025.092-.05.188-.077.275.063.008.13.016.194.028-.078.272-.152.54-.224.811-.067-.008-.131-.016-.193-.025-.023.095-.046.183-.066.272.06.01.124.015.191.021-.09.367-.177.73-.261,1.1l-.189-.022c-.02.09-.041.18-.06.267l.186.024c-.061.273-.118.543-.171.816-.063-.008-.126-.014-.186-.023-.019.09-.033.182-.054.271.063.007.125.015.186.021-.066.36-.131.724-.2,1.087l-.181-.019c-.017.1-.032.181-.045.269.059.01.118.013.178.02q-.063.409-.118.815c-.06-.006-.12-.012-.179-.021-.011.091-.024.183-.037.272.058.006.12.009.178.019-.048.356-.093.721-.138,1.079-.057,0-.114-.008-.17-.014-.01.09-.019.184-.028.275.057,0,.117.006.173.013-.023.269-.049.537-.07.807-.059-.007-.115-.012-.17-.015-.009.091-.016.178-.023.264.056,0,.115.012.171.015-.026.358-.054.715-.069,1.072-.057,0-.115-.008-.17-.009,0,.089-.006.175-.01.264.058,0,.111.006.167.01-.007.27-.016.534-.025.8-.054,0-.108-.007-.165-.01,0,.09,0,.177,0,.263.052.006.107.01.165.015-.01.352-.008.7,0,1.055-.055,0-.108-.006-.161-.014,0,.09,0,.179,0,.264.056,0,.109.007.163.012,0,.263.011.523.019.784l-.158-.013c0,.086.006.178.01.261l.158.015c.021.344.046.685.072,1.023-.052,0-.1-.01-.156-.016.008.09.015.174.021.258.054.008.1.01.158.015.022.256.044.511.07.763-.052,0-.106-.009-.156-.016.011.086.022.166.032.25l.157.019c.041.331.089.664.134.988l-.155-.015c.015.085.027.168.041.247l.15.017c.106.6.225,1.186.347,1.767.123.021.246.038.371.056-.118-.582-.233-1.176-.34-1.77.558.077,1.114.155,1.668.25s1.094.194,1.636.3c-.01-.084-.02-.167-.028-.254-.545-.1-1.092-.2-1.643-.29s-1.112-.176-1.665-.253c-.045-.332-.089-.666-.13-1,.514.068,1.025.136,1.533.218-.008-.083-.017-.173-.025-.259-.511-.077-1.021-.147-1.541-.213-.028-.249-.047-.5-.067-.762.569.066,1.137.147,1.7.233s1.127.188,1.685.287c0-.081-.009-.166-.011-.253-.56-.1-1.124-.2-1.686-.29s-1.136-.163-1.708-.229c-.023-.344-.046-.69-.066-1.036.529.062,1.057.131,1.583.2,0-.083,0-.169-.006-.259q-.79-.106-1.587-.2c-.006-.26-.01-.516-.014-.783.589.07,1.178.141,1.756.229s1.156.194,1.733.3c0-.083,0-.172.009-.262-.576-.1-1.155-.206-1.735-.295s-1.175-.163-1.768-.226c0-.35,0-.7.007-1.058.544.064,1.09.131,1.633.206,0-.086.009-.17.013-.262-.544-.076-1.089-.145-1.639-.206.01-.265.021-.53.033-.795.613.068,1.22.141,1.825.232s1.2.2,1.789.313c.008-.086.018-.169.03-.261-.593-.112-1.191-.221-1.8-.313s-1.219-.173-1.834-.24c.018-.352.045-.709.073-1.067q.851.1,1.693.221c.008-.087.017-.178.03-.268q-.847-.128-1.7-.222c.023-.268.049-.539.078-.809.634.078,1.27.161,1.9.262s1.237.218,1.85.339c.016-.084.031-.171.048-.26-.616-.123-1.238-.247-1.865-.348s-1.266-.186-1.905-.262c.046-.356.094-.712.145-1.076.588.071,1.172.151,1.755.246.016-.09.033-.179.047-.27-.585-.093-1.172-.172-1.763-.251.039-.265.08-.539.124-.807.658.089,1.318.18,1.967.292s1.286.247,1.922.381c.02-.086.042-.17.063-.257-.637-.14-1.283-.273-1.934-.388s-1.312-.208-1.971-.3c.068-.36.136-.721.208-1.081q.916.124,1.822.277c.019-.087.039-.171.062-.262q-.91-.156-1.828-.285c.056-.272.109-.54.174-.816.678.1,1.36.212,2.033.34s1.33.278,1.986.427c.024-.082.051-.172.078-.261-.66-.151-1.324-.3-2-.433s-1.353-.24-2.036-.344c.09-.358.176-.717.267-1.081.634.1,1.263.209,1.888.327.024-.086.049-.177.076-.266-.626-.12-1.257-.232-1.894-.328.072-.271.151-.538.229-.813.706.123,1.405.242,2.1.391s1.372.318,2.049.489c.03-.084.06-.171.089-.258-.678-.173-1.362-.344-2.052-.493s-1.4-.277-2.1-.4c.108-.359.218-.715.329-1.073q.983.175,1.948.377c.034-.085.065-.172.1-.262q-.972-.208-1.956-.387c.094-.266.187-.537.282-.8.726.138,1.446.284,2.16.455s1.409.36,2.1.558c.034-.081.07-.166.1-.25-.7-.2-1.4-.395-2.106-.568s-1.44-.323-2.17-.462c.13-.361.261-.717.4-1.075.671.135,1.338.287,2,.44.035-.085.072-.171.107-.259-.661-.156-1.328-.312-2-.443.109-.269.217-.537.331-.806.747.165,1.494.331,2.224.529s1.439.414,2.147.643c.041-.08.085-.164.13-.249-.71-.232-1.429-.454-2.156-.655s-1.483-.367-2.234-.531c.154-.358.318-.713.484-1.065.688.162,1.37.329,2.045.516.043-.088.089-.172.133-.26-.678-.18-1.364-.357-2.055-.522.123-.262.253-.522.388-.788.764.19,1.528.382,2.278.609s1.471.473,2.193.742l.144-.245c-.724-.264-1.455-.521-2.2-.75s-1.509-.43-2.275-.626c.189-.35.374-.7.565-1.053q1.058.284,2.1.6c.051-.083.1-.172.153-.255q-1.043-.315-2.1-.6c.157-.261.315-.523.473-.786.778.221,1.551.451,2.3.713s1.492.552,2.222.855c.059-.076.114-.154.168-.237-.732-.3-1.47-.606-2.223-.871s-1.531-.495-2.312-.722c.106-.171.22-.348.338-.524m-.219-1c.972.279,1.929.582,2.869.918l-.189.25c-.935-.33-1.889-.628-2.862-.9.061-.086.121-.178.182-.265" transform="translate(-79.711 -118.646)" fill="#676767" fill-rule="evenodd"/>
    <path id="Path_462" data-name="Path 462" d="M184.468,234.055l-.394.037a1.209,1.209,0,0,1,0-.146c-.084.007-.164.015-.247.023,0,.047,0,.1,0,.149-.245.023-.489.047-.736.068,0-.047,0-.095,0-.142-.085.008-.164.009-.245.015,0,.045-.006.095-.007.14-.329.015-.661.036-.994.055,0-.046,0-.092,0-.138l-.246.018c0,.044,0,.09,0,.137-.251.015-.5.019-.752.019,0-.045,0-.087,0-.131-.086,0-.168,0-.249,0,0,.041-.005.084-.007.132-.336,0-.67,0-1.006.009,0-.041,0-.082,0-.126-.087,0-.169,0-.253,0,0,.042,0,.081,0,.124-.259-.012-.515-.026-.77-.041,0-.038,0-.079.007-.121-.085,0-.173-.008-.257-.011,0,.04,0,.08-.006.121-.342-.015-.678-.034-1.026-.073,0-.039.007-.078.011-.116l-.261-.033c-.006.04,0,.075-.01.113-.264-.031-.523-.065-.782-.094,0-.041.007-.078.012-.116-.09-.009-.173-.023-.259-.031-.005.036-.006.075-.01.113-.352-.064-.708-.143-1.058-.219,0-.039.009-.073.015-.108l-.266-.059c-.006.034-.01.07-.016.106-.652-.156-1.32-.378-1.984-.6-.023.085-.04.17-.054.254.665.221,1.34.442,1.994.621-.068.4-.14.786-.229,1.163s-.18.753-.278,1.132c.093.03.187.06.283.089.093-.377.191-.754.273-1.131.087-.4.152-.795.219-1.194.358.076.712.156,1.068.231-.056.365-.116.731-.182,1.1l.273.059c.064-.37.121-.74.171-1.125l.783.1c-.05.427-.108.856-.175,1.285s-.149.855-.231,1.267c.087.021.174.041.268.06.081-.426.159-.857.226-1.291s.121-.86.169-1.285c.352.046.7.07,1.039.09-.041.411-.088.824-.135,1.229.083.011.169.018.255.023.048-.413.094-.825.135-1.238l.768.045c-.043.456-.089.92-.148,1.376s-.136.926-.209,1.385c.081.011.17.02.258.026.074-.459.144-.923.206-1.388s.107-.922.149-1.386l1.008,0c-.034.441-.071.879-.116,1.321.082,0,.163,0,.249.006.045-.441.086-.885.119-1.328.251,0,.5,0,.751,0-.032.5-.073,1-.131,1.488s-.131.992-.2,1.483l.25.016c.069-.494.146-.99.2-1.486s.1-1.009.13-1.516c.329-.014.661-.033,1-.049-.031.473-.068.946-.117,1.42l.2,0,.059-.075q.062-.676.105-1.35c.248-.012.495-.034.738-.055l-.023.386.265-.324.006-.085.071-.007c.111-.135.224-.268.337-.4" transform="translate(-88.188 -119.101)" fill="#676767" fill-rule="evenodd"/>
    <path id="Path_463" data-name="Path 463" d="M1.657,323.3c1.266-4.148,9.985-9.409,14.278-10.879,7.968-2.725,18.347-1.07,26.338.63,4.773,1.014,9.474,2.244,14.21,3.383,2.028.488,4.069.96,6.123,1.353a39.922,39.922,0,0,0,5,.689l.374.022.323.171,12.718,6.739,4.015,2.128-4.647.587c-1.79.226-3.582.508-5.363.794-2.428.39-4.852.8-7.276,1.217-5.91,1.011-11.814,2.046-17.728,3.034-8.609,1.438-29.211,5.734-37,3.807-3.148-2.36-7.652-7.668-9.8-9.983-.918-.99-1.98-2.3-1.556-3.692" transform="translate(-0.797 -158.871)" fill-rule="evenodd"/>
    <path id="Path_464" data-name="Path 464" d="M4.892,325.2c-.368,1.206,2.114,3.19,4.71,5.75,2.221,2.191,4.12,5,8.859,5.994,7.634,1.608,51.063-7.18,63.415-8.74l-12.72-6.74c-11.887-.721-36.374-11.148-50.991-6.147-3.907,1.337-12.2,6.364-13.274,9.882" transform="translate(-2.481 -160.399)" fill="#fdfbe7" fill-rule="evenodd"/>
    <path id="Path_465" data-name="Path 465" d="M65.107,333.252c12.366-2.067,24.684-4.325,30.385-5.046l-12.72-6.739c-11.887-.722-36.374-11.148-50.991-6.147-.089.031-.18.065-.273.1,7.837,3.5,15.326,8.354,23.315,12.872a96.933,96.933,0,0,0,10.283,4.962" transform="translate(-16.097 -160.399)" fill="#fbd0a4" fill-rule="evenodd"/>
    <path id="Path_466" data-name="Path 466" d="M13.793,331.275c2.219,2.19,5.234,3.731,9.972,4.73,7.634,1.606,49.617-4.012,61.968-5.571l-12.72-6.74c-11.887-.721-34.237-8.734-48.855-3.733-4.089,1.4-15.728,6.022-10.366,11.314" transform="translate(-6.338 -162.626)" fill="#ec9e58" fill-rule="evenodd"/>
    <path id="Path_467" data-name="Path 467" d="M70.822,323.495c-12.288-1.417-32.9-8.242-46.66-3.534C20.82,321.1,12.44,324.4,12.411,328.453c2.611,3.495,15,5.333,29.649,4.166,15.057-1.2,27.248-5.151,28.762-9.125" transform="translate(-6.34 -162.626)" fill="#fbd0a4" fill-rule="evenodd"/>
    <path id="Path_468" data-name="Path 468" d="M13.844,332.971c2.219,2.19,5.234,3.731,9.972,4.73,3.806.8,16.158-.194,29.116-1.588-2.674-1.187-5.3-2.477-7.817-3.9-6.654-3.762-12.683-7.314-19.134-10.567-.5.138-.7.267-1.192.434-4.089,1.4-16.307,5.6-10.946,10.889" transform="translate(-6.389 -164.322)" fill="#ec9e58" fill-rule="evenodd"/>
    <path id="Path_469" data-name="Path 469" d="M47.836,333.237q-1.4-.721-2.768-1.491c-6.654-3.762-12.961-7.763-19.412-11.014-.5.139-1.005.292-1.494.457-3.342,1.144-11.721,4.439-11.751,8.493,2.611,3.495,15,5.332,29.649,4.166,1.981-.158,3.913-.364,5.776-.611" transform="translate(-6.34 -163.855)" fill="#fbd0a4" fill-rule="evenodd"/>
    <path id="Path_470" data-name="Path 470" d="M189.66,319.379a24.965,24.965,0,0,0-16.575-11.135,8.61,8.61,0,0,1-.622,2.762l-.624,1.59-1.236-1.2c-.667-.646-1.329-1.28-1.952-1.967-.859-.948-2.33-2.644-1.623-3.991a1.651,1.651,0,0,1,.47-.553c.638-.485,2.49-1.813,2.694-2.55a4.384,4.384,0,0,0,.04-1.167c-.034-.653-.1-1.3-.122-1.955-.1-2.539.512-4.98,3.58-5.309,6.992-.747,18.319-.773,24.161,3.232,1.834,1.255,7.319,7.012,6.731,11.266-.57.75-2.308.449-2.922,1.405a5.325,5.325,0,0,0-.073.667c-.042.472.262.928.024,1.348l-.451.8c.313.627.608,1.274.892,1.944l.018.042.013.042c.532,1.619.469,4.093-.653,5.463-2.1,2.558-5.919,2.785-9.044,3.154l-.3.036-.276-.114c-1.054-.43-2.892-.652-3.392-1.767a1.217,1.217,0,0,1,.437-1.456,5.666,5.666,0,0,1,.5-.381c.091-.064.195-.136.3-.206" transform="translate(-85.236 -149.952)" fill-rule="evenodd"/>
    <path id="Path_471" data-name="Path 471" d="M174.988,296.2c8.588-.917,18.065.084,22.867,3.374,2.444,1.674,4.617,5.136,5.89,8.441.629,1.633-.765.595-1.923,2.515-.214.354-.135,1.629-.381,2.062-1.917-3.133-4.761-5.877-6.876-6.647,3.218,3.662,5.089,5.2,7.262,10.332a4.492,4.492,0,0,1-.553,4.044c-1.987,2.426-5.636,2.8-7.84,3.061-1-.407-2.561-.67-2.8-1.2-.061-.135,1.018-.825,1.172-.9a4.115,4.115,0,0,0,1.225.705c-5.036-8.852-13.2-13.748-22.114-13.96a21.3,21.3,0,0,0,2.2,1.084,6.726,6.726,0,0,1-.537,2.707c-1.006-.976-4.316-4.032-3.213-4.872,1.124-.854,2.788-2.04,3.092-3.13.526-1.89-1.493-7.19,2.525-7.621" transform="translate(-86.415 -151.158)" fill="#fff" fill-rule="evenodd"/>
    <path id="Path_472" data-name="Path 472" d="M129.905,276.738a37.5,37.5,0,0,0,6.9,1.082,78.613,78.613,0,0,0,8.781.184,73.914,73.914,0,0,0,7.387-.588l1.375-.184-.1,1.341c-.072.988-.237,2.016-.386,3-.221,1.433-.463,2.864-.719,4.292-.235,1.313-.482,2.624-.747,3.932-.2.972-.4,1.963-.66,2.923l-.117.434-.4.232c-4.2,2.453-8.1,2.42-12.691,3.417l-.289.062-.282-.081c-4.279-1.233-6.858-3.684-9.715-6.895l-.217-.244-.044-.32a17.465,17.465,0,0,1-.112-2.51c.007-1.082.049-2.168.106-3.249q.092-1.755.238-3.508c.065-.8.133-1.611.243-2.4l.177-1.264Z" transform="translate(-65.329 -141.199)" fill-rule="evenodd"/>
    <path id="Path_473" data-name="Path 473" d="M130.293,290.634c3.1,3.483,5.44,5.483,9.185,6.563,4.7-1.019,8.3-.922,12.352-3.285a137.4,137.4,0,0,0,2.479-13.941c-8.075,1.08-18.225.772-23.54-.711-.25,1.794-.8,9.071-.477,11.374" transform="translate(-66.512 -142.667)" fill="#82c1eb" fill-rule="evenodd"/>
    <path id="Path_474" data-name="Path 474" d="M174.988,296.2c8.588-.917,18.066.083,22.867,3.374,2.444,1.674,3.453,4.23,4.726,7.535.628,1.632-.534-1.069-1.691.851-.215.354-.214,2.164-.46,2.6-2.178-5.639-9.03-6.945-11.146-7.715,3.218,3.66,9.442,7.321,11.616,12.451a4.491,4.491,0,0,1-.553,4.044c-1.032,1.262-4.874,2.465-7.2,1.485-4.767-10.667-14.543-12.606-22.229-12.788a21.3,21.3,0,0,0,2.2,1.084,6.726,6.726,0,0,1-.537,2.707c-1.006-.976-4.316-4.032-3.213-4.872,1.124-.854,2.788-2.04,3.092-3.13.526-1.89-1.493-7.19,2.525-7.622" transform="translate(-86.415 -151.157)" fill="#cccbcb" fill-rule="evenodd"/>
    <path id="Path_475" data-name="Path 475" d="M153.675,275.5a76.363,76.363,0,0,1-7.621.608,81.3,81.3,0,0,1-9.042-.192,39.511,39.511,0,0,1-7.343-1.16l-1.01-.281.223-1c.3-1.361.143-2.931.554-4.242l.267-.851.913.071c7.727.6,15.636.768,23.389.592l1.067-.025.082,1.031a18.314,18.314,0,0,1-.515,4.556l-.152.779Z" transform="translate(-65.728 -137.114)" fill-rule="evenodd"/>
    <path id="Path_476" data-name="Path 476" d="M131.9,270.769c6.806.53,15.33.783,23.508.6a18.9,18.9,0,0,1-.5,4.269c-8.075,1.08-18.225.772-23.54-.711.292-1.3.222-3.17.531-4.153" transform="translate(-67.115 -138.33)" fill="#82c1eb" fill-rule="evenodd"/>
    <path id="Path_477" data-name="Path 477" d="M174.988,296.2c8.588-.917,18.066.083,22.867,3.374,2.444,1.674.062,1.27,1.335,4.575.628,1.631-7.46-.211-9.578-.982,3.219,3.662,8.707,6.441,10.88,11.571.4,1.222-2.425-1.418-3.327-.315-.793.969-2.12,6.272-2.536,5.724-1.722-2.27-3.873-11.64-23.709-12.113a21.3,21.3,0,0,0,2.2,1.084,6.726,6.726,0,0,1-.537,2.707c-1.006-.976-4.316-4.032-3.213-4.872,1.124-.854,2.788-2.04,3.092-3.13.526-1.89-1.493-7.19,2.525-7.622" transform="translate(-86.415 -151.157)" fill="#e4e4e4" fill-rule="evenodd"/>
    <path id="Path_478" data-name="Path 478" d="M189.839,281.374l.06.08.307.419-.032.514q-.128,2-.328,4a37.6,37.6,0,0,1-.637,4.414l-.016.072-.024.07c-.518,1.533-3.945,4.179-5.492,4.773l-1.027.4-.694-.827c-.2-.239-.408-.477-.612-.713l-.579.271q-1.2.56-2.4,1.123l-.49.229-.524-.125a17.234,17.234,0,0,1-3.273-1.319c-1.443-.705-2.86-1.485-4.238-2.3a39.777,39.777,0,0,1-4.892-3.323,9.691,9.691,0,0,1-1.626-1.614,2.376,2.376,0,0,1-.5-2.253,23.289,23.289,0,0,1,1.906-4.755c1.049-2.114,2.222-4.189,3.437-6.217s2.485-4.022,3.831-5.959a31.26,31.26,0,0,1,3.2-4.079l.593-.6.832.182a86.16,86.16,0,0,1,14.705,4.9l.807.335.093.848a17.1,17.1,0,0,1-.257,6.659,23.469,23.469,0,0,1-1.8,4.152Z" transform="translate(-83.122 -134.693)" fill-rule="evenodd"/>
    <path id="Path_479" data-name="Path 479" d="M177.857,266.939a82.52,82.52,0,0,1,14.446,4.823c.549,4.976-.08,6.432-1.907,10a27.382,27.382,0,0,0-12.823-6.9c4.734,2.123,9.607,4.94,12.674,9.12a66.345,66.345,0,0,1-.933,8.19c-.335.988-3.41,3.4-4.609,3.863-4.166-4.944-6.581-6.388-10.747-11.332a102.605,102.605,0,0,0,7.736,10.5l-2.4,1.123c-2.854-.673-14.376-7.258-13.443-8.961.866-4.242,8.969-17.372,12.008-20.429" transform="translate(-84.701 -136.373)" fill="#ec9e58" fill-rule="evenodd"/>
    <path id="Path_480" data-name="Path 480" d="M177.849,266.939a82.522,82.522,0,0,1,14.446,4.823,18.938,18.938,0,0,1-5.107,7.333,30.291,30.291,0,0,0-9.623-4.23c4.734,2.123,9.607,4.94,12.674,9.12-.047.727-8.016,9.26-9.1,8.17a102.87,102.87,0,0,1-7.189-7.449c2.062,2.98,3.17,4.719,4.8,6.868-2.554,1.489-13.9-2.4-12.909-4.207.866-4.242,8.97-17.372,12.008-20.429" transform="translate(-84.693 -136.373)" fill="#fbd0a4" fill-rule="evenodd"/>
    <path id="Path_481" data-name="Path 481" d="M177.84,266.939c5.239,1.147,7.031,2.748,11.832,4.738-1.415,3.9-1.974,5.2-3.291,6.543-2.751-1.9-5.215-2.418-8.825-3.354,4.734,2.123,6.881,4.216,9.947,8.4-.046.728-5.939,7.92-7.023,6.83-2.322-2.333-4.772-4.1-7.24-6.208a54.007,54.007,0,0,0,4.045,6.868c-2.554,1.489-12.443-1.578-11.453-3.385.866-4.242,8.97-17.372,12.008-20.429" transform="translate(-84.685 -136.373)" fill="#fbd0a4" fill-rule="evenodd"/>
    <path id="Path_482" data-name="Path 482" d="M177.84,266.939a27.418,27.418,0,0,1,4.468,1.352c-10.017,2.907-15.224,16.658-11.851,21.817s.2.236.316.345c-2.9-.8-5.469-2.121-4.941-3.085.866-4.242,8.97-17.372,12.008-20.429" transform="translate(-84.684 -136.373)" fill="#fdfbe7" fill-rule="evenodd"/>
    <path id="Path_483" data-name="Path 483" d="M77.207,320.143c3.634,1.384,8.444,2.986,12.388,2.941,7.914-.091,16.368-.071,24.358-.526l4.9-.39c1.037-.321,1.741-1.831,1.932-2.948.422-2.467-3.795-3.4-4.331-5.545-1.92-7.67-3.265-10.154-9.133-15.692-.833-.787-1.681-1.562-2.55-2.31a21.1,21.1,0,0,0-1.809-1.438,9.394,9.394,0,0,0-4.711-1.212,58.486,58.486,0,0,0-6.5.165c-2.758.174-5.508.377-8.269.5-3.236.148-6.473.2-9.709.072-8.649-.332-16.652-3.98-24.546-7.088-4.35,2.443-9.5,8.6-10.808,13.543,8.035,3.512,15.683,8.491,23.858,13.113a110.034,110.034,0,0,0,14.929,6.814" transform="translate(-19.628 -146.455)" fill-rule="evenodd"/>
    <path id="Path_484" data-name="Path 484" d="M103.537,297.82c-3.447-2.35-14.424.328-28.385-.209-8.392-.322-15.387-2.71-24.4-6.261-2.479,1.057-8.906,8.258-9.5,10.485,10.716,5.682,38.084,22.312,49.779,22.177a181.734,181.734,0,0,0,28.031-2.119c8.944-1.5-11.9-21.6-15.525-24.072" transform="translate(-21.075 -148.843)" fill="#fdfbe7" fill-rule="evenodd"/>
    <path id="Path_485" data-name="Path 485" d="M105.829,302.4c-3.446-2.351-13.923.522-27.884-.015-8.391-.322-15.387-2.71-24.405-6.261-3.734,1.591-7.24,9.471-7.185,9.5,12.334,6.323,32.541,17.448,47.867,17.489,9.376.026,31.181,1.064,28.29-5.091-2.76-5.876-14.027-13.814-16.682-15.624" transform="translate(-23.681 -151.282)" fill="#ec9e58" fill-rule="evenodd"/>
    <path id="Path_486" data-name="Path 486" d="M108.851,304.244c-3.445-2.349-12.792-.508-26.752-1.044-8.391-.322-15.452-3.528-24.47-7.079-3.734,1.591-3.282,8.921-3.225,8.952,17.089,8.76,29.965,15.78,49.413,16.176,9.179.188,21.856.272,19.509-4.729-2.759-5.874-11.819-10.467-14.475-12.276" transform="translate(-27.77 -151.282)" fill="#fbd0a4" fill-rule="evenodd"/>
    <path id="Path_487" data-name="Path 487" d="M107.909,304.78c-3.445-2.349-13.441-1.042-27.4-1.579-8.391-.322-15.452-3.528-24.47-7.079-3.734,1.591-4.85,8.281-4.793,8.314,10.948,5.612,25.289,11.593,38.335,13.617,7.319,1.136,14.882.088,21.871.23,10.079.2-1.157-11.879-3.541-13.5" transform="translate(-26.178 -151.282)" fill="#fbd0a4" fill-rule="evenodd"/>
    <path id="Path_488" data-name="Path 488" d="M132.448,274.2a17.077,17.077,0,0,0,.746-2.821l.115-.069.051-.122c3.9.437,7.615,1.336,11.587,1.545a71.468,71.468,0,0,0,9.854-.342,7.2,7.2,0,0,0,.006-1.029c-8.178.187-16.7-.066-23.508-.6a19.764,19.764,0,0,0-.364,3.058,9.651,9.651,0,0,1-.166,1.1q.636.178,1.357.333c.089-.3.2-.664.321-1.053m-.584,2.123c-.412-.09-.82-.188-1.22-.3a81.072,81.072,0,0,0-.419,9.542c.047,0,.095,0,.142-.006.174-.007.348-.016.523-.025a43.82,43.82,0,0,1,.973-9.215" transform="translate(-66.512 -138.33)" fill="#bae2f9" fill-rule="evenodd"/>
    <path id="Path_489" data-name="Path 489" d="M183.882,224.57c.718,1.99-3.561,1.521-4.943,1.271,1.752.677,8.017,2.091,4.943-1.271" transform="translate(-91.416 -114.728)" fill="#fff" fill-rule="evenodd"/>
    <path id="Path_490" data-name="Path 490" d="M42.34,111.927a3.946,3.946,0,0,1,.312,3.5,7.5,7.5,0,0,1-2.548,2.627l-.535.411-.6-.3a97.073,97.073,0,0,0-28.976-9l-.383-.06c-2.514-2.871-6.967-6.277-9.607-9.027a40.523,40.523,0,0,1,13.521-3.143l.156.044c9.746,2.714,20.376,8.42,28.367,14.6l.188.145Z" transform="translate(0 -49.518)" fill-rule="evenodd"/>
    <path id="Path_491" data-name="Path 491" d="M43.313,113.538c-7.767-6.005-18.405-11.741-28-14.413-2.255.065-8.743.967-11.548,2.4,1.759,1.83,6.4,5.521,8.316,7.7a97.821,97.821,0,0,1,29.295,9.106c1.659-1.28,3.232-2.273,1.938-4.793" transform="translate(-1.923 -50.641)" fill="#ca9441" fill-rule="evenodd"/>
    <path id="Path_492" data-name="Path 492" d="M43.313,113.538c-7.767-6.005-18.405-11.741-28-14.413-2.255.065-8.743.967-11.548,2.4.476.495,5.34.618,10.565,2.921,10.178,4.486,24.19,12.441,27.046,13.888,1.659-1.28,3.232-2.273,1.938-4.793" transform="translate(-1.923 -50.641)" fill="#f6c986" fill-rule="evenodd"/>
    <path id="Path_493" data-name="Path 493" d="M9.915,100.464a24.943,24.943,0,0,0-6.151,1.742c1.066,1.108,3.193,2.9,5.127,4.629,1.725-1.459,2.479-3.576,1.712-5.333a3.591,3.591,0,0,0-.688-1.037" transform="translate(-1.923 -51.325)" fill="#191919" fill-rule="evenodd"/>
    <path id="Path_494" data-name="Path 494" d="M10.418,101.8a20.065,20.065,0,0,0-4.937,1.4c1.481.352,4.359.539,5.547,1.018.515-1.23.4-1.351-.61-2.415" transform="translate(-2.8 -52.006)" fill="#989898" fill-rule="evenodd"/>
    <path id="Path_495" data-name="Path 495" d="M23.033,103.175c-.051-.042-.1-.083-.157-.126-1.111-.9-2.96-2.355-2.745-3.968.158-1.19,1.269-1.8,2.3-2.141l.308-.1.313.087A87.024,87.024,0,0,1,48.34,109.261q1.566,1.1,3.081,2.264l.187.145.109.213a3.948,3.948,0,0,1,.312,3.5,7.5,7.5,0,0,1-2.548,2.627l-.535.411-.6-.3a97.074,97.074,0,0,0-28.976-9l-.659-.1-.2-.637a3.147,3.147,0,0,1,.023-2.033c.6-1.666,2.583-2.653,4.5-3.165" transform="translate(-9.377 -49.473)" fill-rule="evenodd"/>
    <path id="Path_496" data-name="Path 496" d="M51.884,113.538q-1.456-1.124-3.039-2.234A86.713,86.713,0,0,0,23.884,99.125c-4.08,1.336.793,4,2.7,5.874-2.4.2-6.791,1.465-5.935,4.225a97.821,97.821,0,0,1,29.295,9.106c1.659-1.28,3.232-2.273,1.938-4.793" transform="translate(-10.494 -50.641)" fill="#0085a9" fill-rule="evenodd"/>
    <path id="Path_497" data-name="Path 497" d="M75.265,121.906a4.146,4.146,0,0,1,.406,3.581c-.594,1.334-2.116,2.24-3.235,3.1-2.154-1.09-4.376-2.215-6.609-3.137l-1.575-.649,1.27-1.136a6.694,6.694,0,0,0,2.114-5.109l-.03-2.009,1.682,1.1q1.264.821,2.5,1.686c1.043.731,2.171,1.442,3.179,2.221l.189.145Z" transform="translate(-32.825 -59.541)" fill="#cf4444" fill-rule="evenodd"/>
    <path id="Path_498" data-name="Path 498" d="M76.286,124.519q-1.456-1.124-3.039-2.234-1.2-.841-2.469-1.664a7.744,7.744,0,0,1-2.471,5.922q3.045,1.256,6.041,2.769c1.659-1.28,3.232-2.273,1.938-4.793" transform="translate(-34.896 -61.622)" fill="#f19698" fill-rule="evenodd"/>
    <path id="Path_499" data-name="Path 499" d="M55.042,114.016q-1.349-1.043-2.817-2.071a80.366,80.366,0,0,0-23.133-11.287c-.363.119,21.177,11.3,25.949,13.357" transform="translate(-14.86 -51.424)" fill="#82b1bb" fill-rule="evenodd"/>
    <path id="Path_500" data-name="Path 500" d="M77.545,124.742q-1.351-1.043-2.818-2.07-.732-.512-1.491-1.018a8.181,8.181,0,0,1-.1,1c1.915.943,3.483,1.691,4.412,2.092" transform="translate(-37.362 -62.15)" fill="#fff" fill-rule="evenodd"/>
    <path id="Path_501" data-name="Path 501" d="M51.435,121.531c-4.82-3.726-16.786-6.515-22.665-8.37-2.273.187-6.247,0-5.438,2.609a91.193,91.193,0,0,1,27.456,8.64,2.4,2.4,0,0,0,.647-2.879" transform="translate(-11.865 -57.811)" fill-rule="evenodd"/>
    <path id="Path_502" data-name="Path 502" d="M75.1,127.879a20.72,20.72,0,0,0-4.007-2.292,7.543,7.543,0,0,1-1.546,2.879q2.461,1.055,4.906,2.292a2.4,2.4,0,0,0,.647-2.879" transform="translate(-35.529 -64.16)" fill="#d86a6a" fill-rule="evenodd"/>
    <path id="Path_503" data-name="Path 503" d="M62.756,115.071l-2.316-3.764c-3.468-5.64-7.088-11.21-7.563-18-.337-4.807.887-9.781,2.048-15.267a21.867,21.867,0,0,0-1.87-6.974c-1.019-2.451-3.893-4.662-4.547-7.25,1.667-4.125,7.729-9.038,10.684-12.375q2.63-2.971,5.375-5.837c1.359-1.424,2.736-2.841,4.148-4.216a30.947,30.947,0,0,1,22.139-8.538A38.184,38.184,0,0,1,112.4,39.671C117.056,43,118.709,50.4,119.32,55.736a71.736,71.736,0,0,1,.3,11.647,96.451,96.451,0,0,1-1.465,12.54c-3.143,17.2-6.765,24.08-20.1,29.22l-3.988,3.974q-.189.287-.377.571a11.755,11.755,0,0,1-2.023,2.51c-2.743,2.085-9.462,3.456-12.852,3.969-3.572.54-12.03,1.515-14.737-1.485l-.046-.052-.041-.055a12.685,12.685,0,0,1-1.169-3.245c-.023-.087-.046-.172-.069-.258" transform="translate(-24.781 -16.781)" fill-rule="evenodd"/>
    <path id="Path_504" data-name="Path 504" d="M55.1,65.48C56.242,70,59.368,74.2,59.687,79.836c-3.676,18.714,2.261,27.513,5.3,32.453a58.379,58.379,0,0,1-.55-8.668c.231.438,3.11,14.577,4.04,15.841,3.316,3.676,21.8.324,25.722-2.659,1.274-.968,4.987-7.622,7.058-10.583a30.069,30.069,0,0,1-2.916,6.685c24.678-10.428,35.872-58.31,16.617-70.4-11.76-7.383-30.044-9.974-41.911,1.579-4.107,4-15.933,16.4-17.95,21.394" transform="translate(-28.149 -18.489)" fill="#fdfbe7" fill-rule="evenodd"/>
    <path id="Path_505" data-name="Path 505" d="M55.1,65.468c1.09,4.312,3.98,8.323,4.525,13.573.025.258,1.518,2.908,4.377.44-7.989,8.729-3.133,25.127.488,27.5a20.359,20.359,0,0,1-.051-3.376c.233.438,3.488,12.32,4.417,13.584,3.317,3.676,21.067.939,24.992-2.044,1.273-.968,5.34-5.98,7.411-8.942a30.058,30.058,0,0,1-2.916,6.685c25.422-8.927,35.926-58.2,16.618-70.4-11.74-7.416-30.044-9.974-41.911,1.579-3.144,3.062,1.582,9.858-5.416,11.751C61.184,57.568,55.572,64.3,55.1,65.468M72.358,91.385a52.885,52.885,0,0,0,4.718-8.4c.64-1.852.272-4.916.31-7.084.536,2.266,2.316,4.917,1.938,7.306-.419,2.654-2.316,4.2-2.2,5.022.224,1.576,3.138,1.919,8.369.912A14.466,14.466,0,0,1,79.1,91.152c-2.7.061-4.933-.889-5.057-.693a8.088,8.088,0,0,0,4.713,3.519c.989.125,3.7-.919,7.48-2.189-2.934,2-4.754,3.19-7.7,2.819-1.144-.143-5.851-2.315-6.176-3.223m41.91-2.886c-4.9-3.378-16.633-1.743-21.535-1.433,7.247-4.149,19.741-3.323,21.535,1.433" transform="translate(-28.149 -18.477)" fill="#ec9e58" fill-rule="evenodd"/>
    <path id="Path_506" data-name="Path 506" d="M60.1,66.846a51.521,51.521,0,0,1,2.077,12.208,2.359,2.359,0,0,0,2.107,1.484c-2.975-3.287,9.809-10.5,13.282-7.87-2.4-10.574-13.186-18-17.466-5.822M65.2,81.232c3.82,2.312,7.976.639,12.456-.806a11.323,11.323,0,0,0,.985-5.321c.214.77.414,1.578.6,2.435-.079-2.519-5.053-20.052-6.89-22.894,2.962-2.835.679-8.046,3.26-10.559,9.363-9.114,22.719-9.424,33.715-5.523a8.63,8.63,0,0,0-2.984,7.323,8.781,8.781,0,0,0,2.409,5.411c-5.868.176-18.228,5.8-21.793,12.424.8-.335,2.9,15.453,2.928,14.55.165-5.02-.437-11.141,2.329-14.281,4.675-5.31,17.737-2.489,22.017,1.666.771.748,4.289,18.131-.426,17.877-3.616,3.051-21.582-14.068-22.68-1.523a45.562,45.562,0,0,0,10.793,2.374,27.047,27.047,0,0,0-6.455,2.6l-.169.1c4.9-.31,16.635-1.945,21.534,1.433.753.624,1.255,1.745,1.476,3.718.365-1.79-1.642-4.43-1.339-7.584.55-5.743,1.235-13.63,1.861-19.082.755-6.58,2.183-11.826,3.35-18.729,21.786,31.143-21.149,72-18.358,59.386-2.071,2.961-6.138,7.974-7.411,8.942-3.925,2.982-21.675,5.72-24.991,2.044-.93-1.263-4.185-13.146-4.418-13.583A20.471,20.471,0,0,0,67.046,107c-3.393-2.227-7.87-16.764-1.849-25.767M74.915,91.4A52.932,52.932,0,0,0,79.634,83c.639-1.852.272-4.915.31-7.084.536,2.267,2.315,4.918,1.938,7.306-.419,2.654-2.316,4.2-2.2,5.023.224,1.576,3.138,1.919,8.369.912-1.922,1.092-4.034,2.662-6.133,2.709-1.207.027-1.983-.649-2.158-.21-.211.529.163,1.509,1.64,1.7.988.125,3.616-.273,7.392-1.544-2.934,2-4.754,3.19-7.7,2.819-1.144-.143-5.851-2.316-6.176-3.223" transform="translate(-30.706 -18.49)" fill="#fbd0a4" fill-rule="evenodd"/>
    <path id="Path_507" data-name="Path 507" d="M71.777,81.573c-2.93,3.394-5.194,8.488-5.046,12.5.19,5.152,2.049,11.329,3.646,9.552.232.438,3.582,11.422,4.512,12.686,3.317,3.676,19.568.278,23.492-2.7a80.082,80.082,0,0,0,9.329-10.041c-.725,7.806,22.371-12.637,6.247-16.161-5.555-1.214-11.595-.555-15.284-.322,13.04-2.337,4.145-5.314-4.717-4.862-.062-4.889.466-17.077-3.621-18.5,4.026-7.482,16.287-10.552,20.732-9.08A19.009,19.009,0,0,1,112.8,56.1c.8-3.305,10-12.4,8.1-13.6-11.76-7.383-30.044-9.974-41.911,1.579-2.714,2.643,2.481,8.576-1.111,11.228,3.641,5.767,3.791,14.96,5.705,21.474.7,2.056,2.01,4.341,1.682,6.427-.419,2.655-2.316,4.2-2.2,5.023.224,1.576,3.138,1.919,8.369.912,1.243-.475,1.166,1.357.741,2.652-2.356,2.288-4.425,3.831-7.372,3.462-1.144-.144-6.182-2.958-6.506-3.866a52.93,52.93,0,0,0,4.719-8.4l.028-.085.007-.02.019-.063.007-.023.021-.07,0-.018.018-.062.009-.033v-.007l.019-.075v-.005l.019-.08,0-.012.005-.025.015-.067,0-.014.016-.078,0-.023.014-.075,0-.013,0-.026.013-.076,0-.01.014-.087v0l.012-.082,0-.022,0-.027.007-.062,0-.035.008-.07,0-.018,0-.032,0-.033.006-.058.009-.091h0l.009-.091,0-.018,0-.075c.008-.093.015-.186.021-.281l0-.091v0l0-.094V80.74l0-.082.008-.183v-.011l0-.068v-.127l0-.1v-.6l0-.1v-.4l0-.1v0l0-.1v-.016l0-.085v-.1l0-.053v-.047l0-.071v-.029l0-.09v-.01l0-.1v-.01l0-.09v-.027l0-.071,0-.046V77.97l0-.065v-.133l0-.1v0l0-.095v-.021l0-.075,0-.041v-.058l0-.057v-.039l0-.1,0-.093v0l0-.094c-.416.306-13.792,6.5-11.556,4.573m22.438,31.453c-7.163,4.434-13.768,5.725-16.285.174,5.211,1.874,10.617,1.192,16.285-.174m18.238-23.357c.831,2.511-2.416,11.354-5.715,14.312-8.166,7.321-25.658,11.095-30.236,4.387a40.233,40.233,0,0,1-3.531-7.632c-.733-1.838-2.659-4.046-3.81-6.571,2.684,2.235,6.878,2.434,10.368,2.477,11.4.138,26.475-2.881,32.924-6.973" transform="translate(-34.088 -18.489)" fill="#fbd0a4" fill-rule="evenodd"/>
    <path id="Path_508" data-name="Path 508" d="M73.036,82.1c-.1-3.31-3.456-10.66-5.512-12.169C61.1,71.41,57.9,76.8,53.866,81.8c1.215-.4,9.82-6.413,11.494-6.224a11.389,11.389,0,0,1,7.675,6.53" transform="translate(-27.519 -35.727)" fill="#421e0f" fill-rule="evenodd"/>
    <path id="Path_509" data-name="Path 509" d="M115,81.841c4.026-7.482,16.446-11.345,20.891-9.872,2.789,2.051,7.609,8.257,8.322,13.73-3.867-3.88-7.029-6.989-11.19-7.694-5.7-.966-12.43,1.5-18.024,3.836" transform="translate(-58.748 -36.609)" fill="#421e0f" fill-rule="evenodd"/>
    <path id="Path_510" data-name="Path 510" d="M81.213,113.376c3.167-7.646-1.672-11.492-6.149-12.62C71,99.733,64.335,111.1,68.273,113.867s8.271,1.016,12.94-.491" transform="translate(-34.266 -51.441)" fill-rule="evenodd"/>
    <path id="Path_511" data-name="Path 511" d="M123.517,115.088c.663-7.564,6.426-13.716,12.994-14.14,4.8-.309,8.473,6.281,9.451,10.614,1.944,8.615-14.878,6.327-22.445,3.526" transform="translate(-63.102 -51.567)" fill-rule="evenodd"/>
    <path id="Path_512" data-name="Path 512" d="M85.109,116.792c.419-7.039-3.839-11.768-8.532-12.408-3.063-.416-7.917,9.146-5.311,11.271,4.078,3.325,9,2.7,13.843,1.137" transform="translate(-36.029 -53.321)" fill="#fff" fill-rule="evenodd"/>
    <path id="Path_513" data-name="Path 513" d="M82.252,108.111a8.564,8.564,0,0,0-5.087-2.741c-2.847-.386-7.358,8.5-4.936,10.475a10.463,10.463,0,0,0,8.193,2.138c-2.8-.087-5.1-1-5.995-2.25-2.5-3.5,1.107-9.79,3.7-9.437a7.974,7.974,0,0,1,4.122,1.815" transform="translate(-36.547 -53.825)" fill="#c5d4e5" fill-rule="evenodd"/>
    <path id="Path_514" data-name="Path 514" d="M135.375,106.608c4.371.443,9.356,8.662,7.544,10.913-4.2,5.214-15.49,2.738-20.257,1.495-3.785-.988,3.828-13.308,12.712-12.408" transform="translate(-62.157 -54.44)" fill="#fff" fill-rule="evenodd"/>
    <path id="Path_515" data-name="Path 515" d="M138.681,110.171c3.087,2.375,5.571,7.336,4.26,8.966a8.264,8.264,0,0,1-5.115,2.7,6.732,6.732,0,0,0,3.49-2.8c.982-1.567-.41-6.242-2.635-8.873m-8.048,11.7a52.894,52.894,0,0,1-6.7-1.331c-2.553-.666.419-6.825,5.387-9.924-2.869,2.757-4.032,7.188-3.108,8.963.355.685,2.146,1.687,4.426,2.293" transform="translate(-62.835 -56.284)" fill="#c5d4e5" fill-rule="evenodd"/>
    <path id="Path_516" data-name="Path 516" d="M114.7,149.432c.831,2.511-.786,9.444-4.085,12.4-8.167,7.321-25.658,11.094-30.236,4.387-.744-1.089-.025-5.9-1.893-8.948a13.277,13.277,0,0,1-4.168-3.853c9.63,4.347,31.573,1.906,40.382-3.988" transform="translate(-37.969 -76.341)" fill-rule="evenodd"/>
    <path id="Path_517" data-name="Path 517" d="M117.436,155.557a59.2,59.2,0,0,1-16.06,3.83,60.876,60.876,0,0,1-14.588-.084c-1.018-.151.619,3.457,1,4.68,9.919,2.507,18.967,1.177,28.694-.6a9.289,9.289,0,0,0,2.358-3.441c.532-1.322-.475-4.781-1.4-4.385m-29.42,9.253c9.182,2.2,17.754,1.555,27.471-.086a34.056,34.056,0,0,1-20.674,7.048c-2.57-.1-5.814-.744-7.372-3.023a37.72,37.72,0,0,1,.575-3.939" transform="translate(-44.17 -79.455)" fill="#c5d4e5" fill-rule="evenodd"/>
    <path id="Path_518" data-name="Path 518" d="M112.579,176.393a14.291,14.291,0,0,1-2.065,2.8q-1.019.362-2.032.668a39.111,39.111,0,0,1-11.507,1.8,18.476,18.476,0,0,1-3.467-.356,8.707,8.707,0,0,1-2.7-5.025,74.592,74.592,0,0,0,21.775.113" transform="translate(-46.39 -90.057)" fill="#fff" fill-rule="evenodd"/>
    <path id="Path_519" data-name="Path 519" d="M113.822,161.112a87.968,87.968,0,0,1-10.421,1.669,81.916,81.916,0,0,1-12.718.335,10.853,10.853,0,0,0-.286,1.553,9.846,9.846,0,0,0-.01,2.046c7.676,1.293,14.884.8,22.329-.222a11.437,11.437,0,0,0,1.064-3.687,9.9,9.9,0,0,0,.041-1.7" transform="translate(-46.152 -82.308)" fill="#fff" fill-rule="evenodd"/>
    <path id="Path_520" data-name="Path 520" d="M85.748,110.074a3.969,3.969,0,0,1,2.371,1.011,11.506,11.506,0,0,1,1.588,2.954,5.758,5.758,0,0,1,.064,1.33c-.188,2.761-2.295,4.865-4.7,4.7s-4.21-2.536-4.022-5.3,2.294-4.865,4.7-4.7" transform="translate(-41.397 -56.23)" fill-rule="evenodd"/>
    <path id="Path_521" data-name="Path 521" d="M86.336,120.7c1.872.128,3.627-3.264,3.481-1.122a3.427,3.427,0,1,1-6.776-.461c.147-2.144,1.425,1.455,3.3,1.583" transform="translate(-42.419 -60.509)" fill="#3eb4e8" fill-rule="evenodd"/>
    <path id="Path_522" data-name="Path 522" d="M95.146,115.746a2.114,2.114,0,0,1-1.957,1.146,2.308,2.308,0,0,1-1.963-2.586,2.353,2.353,0,0,1,2.046-2.295,11.583,11.583,0,0,1,1.875,3.734" transform="translate(-46.602 -57.224)" fill="#fff" fill-rule="evenodd"/>
    <path id="Path_523" data-name="Path 523" d="M85.952,118.214a1.8,1.8,0,1,1-1.673,1.674,1.68,1.68,0,0,1,1.673-1.674" transform="translate(-43.054 -60.391)" fill="#fff" fill-rule="evenodd"/>
    <path id="Path_524" data-name="Path 524" d="M141.176,110.87a5.417,5.417,0,1,1-5.773,5.036,5.417,5.417,0,0,1,5.773-5.036" transform="translate(-69.168 -56.634)" fill-rule="evenodd"/>
    <path id="Path_525" data-name="Path 525" d="M141.973,122.33c2.316.157,4.453-3.494,4.3-1.177a4.206,4.206,0,1,1-8.392-.572c.157-2.316,1.779,1.59,4.1,1.749" transform="translate(-70.433 -61.228)" fill="#3eb4e8" fill-rule="evenodd"/>
    <path id="Path_526" data-name="Path 526" d="M149.376,112.1a2.644,2.644,0,1,1-2.818,2.457,2.644,2.644,0,0,1,2.818-2.457" transform="translate(-74.87 -57.264)" fill="#fff" fill-rule="evenodd"/>
    <path id="Path_527" data-name="Path 527" d="M141.063,120.621a1.689,1.689,0,1,1-1.8,1.57,1.688,1.688,0,0,1,1.8-1.57" transform="translate(-71.145 -61.62)" fill="#fff" fill-rule="evenodd"/>
    <path id="Path_528" data-name="Path 528" d="M126.611,47.732A95.463,95.463,0,0,0,95,39.1c-2.854-.28-5.726-.455-8.59-.56-3.586-.13-7.224-.16-10.807.03l-1.868.1.451-1.817A19.687,19.687,0,0,1,85.553,23.1a41.887,41.887,0,0,1,27.656-2.557,39.375,39.375,0,0,1,22.058,14.238,33.546,33.546,0,0,1,1.976,2.948c7.035,11.795,3.3,32.244-5.8,42.075l-1.859,2.008-.519-2.688c-.317-1.649-.63-3.319-.847-4.985a13.511,13.511,0,0,1-.142-3.2,7.233,7.233,0,0,1,.388-1.4c.214-.609.443-1.215.665-1.82a44.524,44.524,0,0,0,1.493-4.687,16.159,16.159,0,0,0,.528-3.575c-.891-4.213-1.909-8.217-4.539-11.72" transform="translate(-37.667 -9.853)" fill="#7f3e12" fill-rule="evenodd"/>
    <path id="Path_529" data-name="Path 529" d="M129.38,48.063c3.206,4.113,4.248,8.967,5.032,12.692,0,4.567-2.924,10.5-3.087,11.791-.156,1.249.21,3.777.976,7.757,8.659-9.349,12.363-29.134,5.629-40.425C128.67,24.354,106.582,17.2,88.011,25.8A18.31,18.31,0,0,0,77.4,38.625a143.176,143.176,0,0,1,19.605.535,96.379,96.379,0,0,1,32.372,8.9" transform="translate(-39.543 -11.295)" fill="#c88a34" fill-rule="evenodd"/>
    <path id="Path_530" data-name="Path 530" d="M129.38,47.892c3.206,4.113,5.617,8.691,6.4,12.416,0,5.36-5.09,13.178-4.2,17.821,8.658-9.35,11.507-27.284,6.344-38.422-7.6-16.4-31.347-22.679-49.918-14.082A18.31,18.31,0,0,0,77.4,38.453a143.176,143.176,0,0,1,19.605.535,96.379,96.379,0,0,1,32.372,8.9" transform="translate(-39.543 -11.124)" fill="#9f5e18" fill-rule="evenodd"/>
    <path id="Path_531" data-name="Path 531" d="M61.975,27.551,62.549,26a34.586,34.586,0,0,1,5.324-8.8c.741-.859,2.23-.789,3.272-.925l.34-.045a1.413,1.413,0,0,1,.262-.332c6.876-6.4,17.459-9.294,26.679-9.116,9.449.183,18.4,2.908,24.969,9.984a32.655,32.655,0,0,1,5.184,7.533,1.372,1.372,0,0,1,.151.591,1.456,1.456,0,0,1-.01.228,2.86,2.86,0,0,1,.843.218c.2.093.4.184.6.275.795.362,2.114.86,2.473,1.708,1.941,4.592,2.194,9.847,2.736,14.75l.226,2.051q.619.65,1.191,1.306l.3.349.033.461a34.177,34.177,0,0,1-.2,7.244c-1.355,1.305-2.91,1.623-4.64,2.066l-.815.209-.561-.628c-11.621-12.993-22.9-16.812-39.889-18.854-10.278-1.236-18.838-1.942-28.713,2.08-1.225.5-3.233-.784-4.12-1.577l-.308-.273-.108-.4a11,11,0,0,1,.651-6.576l.186-.5.478-.246a22.935,22.935,0,0,1,2.893-1.23" transform="translate(-29.378 -3.462)" fill-rule="evenodd"/>
    <path id="Path_532" data-name="Path 532" d="M133.385,55.654c1.006-.258,2.727-.584,3.482-1.448a29.829,29.829,0,0,0,.325-6.42c-4.694-5.408-13.014-11.259-20.934-14.513,6.313,1.63,14.565,6.027,19.186,10.4-.574-5.189-.823-10.074-2.636-14.364a9.348,9.348,0,0,0-2.383-1.267c-.594-.277-5.145-.529-13.62,4.188,5.619-5.053,12.147-5.534,11.984-5.855C123.76,16.41,114.615,9.9,99.845,9.615,91.412,9.452,80.97,12,74.138,18.36a44.782,44.782,0,0,0-1.069,7.379c-.856-2.466-.3-4.888-.3-6.644-.887.117-2.113.12-2.4.458A34.491,34.491,0,0,0,65.3,27.929c6.119-1.288,20.393-4.4,41.637,2.514-31.462-6.18-44.2.208-45.767,1.016a9.66,9.66,0,0,0-.613,5.734c.8.711,2.287,1.485,2.675,1.326,10.468-4.263,19.5-3.362,29.4-2.172,17.886,2.15,29.167,6.348,40.758,19.307" transform="translate(-30.825 -4.909)" fill-rule="evenodd"/>
    <path id="Path_533" data-name="Path 533" d="M132.443,53.613c1.006-.257,3.079.336-12.909-13.616.319-2.2,17.807,9.889,17.657,7.789-4.694-5.408-13.013-11.26-20.933-14.513,6.313,1.63,14.565,6.027,19.186,10.4-.574-5.189-.823-10.073-2.636-14.363a9.314,9.314,0,0,0-2.383-1.267c-.594-.277-5.145-.529-13.62,4.188,3-5.545,7.829-4.739,7.713-5.976-.357-3.8-7.375-7.331-14.605-10.6-3.787-1.712-6.472-5.969-10.067-6.04C91.412,9.453,80.97,12,74.138,18.361a44.856,44.856,0,0,0-1.068,7.378c-.856-2.466-.3-4.888-.3-6.643-.887.117-2.113.12-2.4.458a34.488,34.488,0,0,0-5.074,8.375c6.119-1.288,20.393-4.4,41.637,2.514-31.462-6.18-44.2.208-45.767,1.016a9.656,9.656,0,0,0-.613,5.733c.8.711,2.287,1.485,2.676,1.326,10.468-4.263,19.5-3.362,29.4-2.172,17.886,2.15,28.225,4.308,39.816,17.266" transform="translate(-30.825 -4.909)" fill="#dabb05" fill-rule="evenodd"/>
    <path id="Path_534" data-name="Path 534" d="M136.867,54.2a29.809,29.809,0,0,0,.325-6.419c-4.656-5.362-12.875-11.162-20.736-14.431a74.1,74.1,0,0,0-9.983-3c-31.124-6.027-43.749.3-45.307,1.105a9.66,9.66,0,0,0-.613,5.734c.8.711,2.287,1.485,2.675,1.326C73.7,34.257,83.685,31.741,93.581,32.93c9.819,1.18,17.44-2.139,43.286,21.274M116.5,33.335c.194-.991.967-1.418,2.605-2.317,7-3.459,7.823-1.934,8.362-1.684.494.232,3.708,6.217,2.373,7.57S123.5,33.4,116.5,33.335m5.245-7.011c-.2,2.226-6.723,3.327-14.625,1.726C78.747,22.3,72.64,26.383,65.3,27.929a34.507,34.507,0,0,1,5.074-8.375c.062,1.685.083,6.38,2.645,6.19a42.232,42.232,0,0,1,1.124-7.383C80.97,12,91.412,9.452,99.845,9.615c10.423.2,22.649,8.541,21.9,16.708" transform="translate(-30.825 -4.909)" fill="#ffdf05" fill-rule="evenodd"/>
    <path id="Path_535" data-name="Path 535" d="M144,12.658l1.246,2.52-2.758-.549a18.462,18.462,0,0,0-11.836,1.976,39.885,39.885,0,0,0-4.918,2.926c-1.344.92-2.639,1.9-3.965,2.841l-.5.351-.594-.127a86.191,86.191,0,0,0-21.31-2.225l-1.525.058.089-1.523c.341-5.864,3.636-11.961,6.771-16.8l.273-.424.482-.147A38.655,38.655,0,0,1,114.237.11a59.778,59.778,0,0,1,10.751.315,62.41,62.41,0,0,1,9.661,1.792c4.623,2.658,6.882,5.439,9.353,10.44" transform="translate(-49.987 0)" fill-rule="evenodd"/>
    <path id="Path_536" data-name="Path 536" d="M100.854,20.437a87.616,87.616,0,0,1,21.652,2.254C127,19.5,134.95,12.86,144.3,14.721a34.636,34.636,0,0,0-7.061-8.571c-1.292-.621-9.181-1.456-14.678,15.767,2.289-13.454,8.56-16.881,11.872-16.989-9.124-2.853-20.864-2.513-27.026-.62-2.881,4.448-6.221,10.47-6.551,16.13" transform="translate(-51.524 -1.449)" fill-rule="evenodd"/>
    <path id="Path_537" data-name="Path 537" d="M100.854,20.437a87.616,87.616,0,0,1,21.652,2.254c4.868-7.943,18.467-10.2,17.887-11.606-.758-1.827-1.093-1.259-3.057-2.994-1.293-.622-9.28-3.4-14.777,13.825,2.289-13.454,8.56-16.881,11.872-16.989-9.124-2.853-20.864-2.513-27.026-.62-2.881,4.448-6.221,10.47-6.551,16.13" transform="translate(-51.524 -1.449)" fill="#ffdf05" fill-rule="evenodd"/>
    <path id="Path_538" data-name="Path 538" d="M100.854,23.745a86.1,86.1,0,0,1,20.868,2.09c-.24-7.879,6.147-14.751,3.346-15.739-4.851-1.711-15.186-.322-19.949,1.287-2.131,3.8-4.02,8.178-4.265,12.363" transform="translate(-51.524 -4.756)" fill="#ffdf05" fill-rule="evenodd"/>
    <path id="Path_539" data-name="Path 539" d="M109.964,63.188a68.725,68.725,0,0,0-9.1-3.1A106.8,106.8,0,0,0,90.376,57.8c-3.549-.594-7.137-1.029-10.727-1.268A72.266,72.266,0,0,0,70,56.474c-2.657.181-9.229.882-10.72,3.545l-.6,1.068-1.134-.462c-2.368-.967-10.367-4.236-9.72-7.82.752-4.164,10.626-5.229,13.777-5.385,15.25-.762,38.12,3.107,49.831,13.457l6.494,5.738Z" transform="translate(-24.412 -24.178)" fill-rule="evenodd"/>
    <path id="Path_540" data-name="Path 540" d="M111.557,63.009C92.18,47.482,40.526,48.515,53.949,58.1c-7.759-7.3,39.61-9.575,57.608,4.9" transform="translate(-26.438 -26.096)" fill="#fff6c6" fill-rule="evenodd"/>
    <path id="Path_541" data-name="Path 541" d="M113.63,64.889c-19.49-17.325-80.617-13.1-52.446-2.573,4.2-7.506,35.95-4.531,52.446,2.573" transform="translate(-27.529 -27.152)" fill="#ffdf05" fill-rule="evenodd"/>
    <path id="Path_542" data-name="Path 542" d="M113.826,66.29c-22.072-13.9-58.122-11.273-59.555-6.9,1.033,1.366,2.776,2.564,7.109,4.331,4.2-7.506,35.95-4.531,52.446,2.573" transform="translate(-27.726 -28.554)" fill-rule="evenodd"/>
    <path id="Path_543" data-name="Path 543" d="M198.6,112.526c1.976,6.116-.713,13.153-5.2,17.568a17.178,17.178,0,0,1-6.684,4.157,8.656,8.656,0,0,1-6.828-.35l-.688-.388c-3.491-9.1,14.917-34.87,19.4-20.986" transform="translate(-91.322 -55.431)" fill-rule="evenodd"/>
    <path id="Path_544" data-name="Path 544" d="M179.631,135.03c-.651-6.61,13.732-30.97,17.5-19.327,3.984,12.333-8.967,23.54-17.5,19.327m10.953-3.805c2.295-2.471,8.982-13.513,3.835-14.216-2.517-.343-7.061,2.737-11.294,11.642,2.7,1.34,3.449,1.737,2.556,4.743,2.482-2.143,1.415-4.031-.632-5.425,3.976-7.609,7.116-9.346,8.71-9.24,1.806.121,1.322,4.678-3.174,12.5" transform="translate(-91.758 -57.523)" fill="#ec9e58" fill-rule="evenodd"/>
    <path id="Path_545" data-name="Path 545" d="M178.508,135.139c-.651-6.61,14.281-31.07,18.045-19.427,3.984,12.333-9.515,23.64-18.045,19.427m11.5-3.9c2.295-2.471,8.982-13.513,3.835-14.216-2.517-.343-7.061,2.737-11.294,11.642,2.7,1.34,3.449,1.737,2.556,4.743,1.678.176,2.71-5.093,4.888-7.829,1.721-2.162,2.409-1.976.016,5.661" transform="translate(-91.185 -57.532)" fill="#fbd0a4" fill-rule="evenodd"/>
    <path id="Path_546" data-name="Path 546" d="M182.972,130.781a29.213,29.213,0,0,1,4.638-10.13c4.158-5.682,10.017-9.145,11.111-4.189,1.815,8.226-3.832,17.084-10.456,18.556-4.3.957-6.254-.029-5.293-4.237m9.207,1.2c2.295-2.471,8.982-13.513,3.835-14.216-2.517-.343-7.062,2.737-11.294,11.642,2.7,1.34,3.449,1.737,2.556,4.743.243-.211,3.326-.239,4.9-2.168" transform="translate(-93.353 -58.282)" fill="#facb99" fill-rule="evenodd"/>
    <path id="Path_547" data-name="Path 547" d="M194.255,135.806c4.5-7.818,4.98-12.375,3.174-12.5-1.594-.107-4.734,1.631-8.71,9.24,2.047,1.394,3.112,3.282.632,5.426.894-3.007.146-3.4-2.556-4.744,4.233-8.9,8.777-11.984,11.294-11.642,5.148.7-1.54,11.745-3.835,14.216" transform="translate(-95.429 -62.105)" fill-rule="evenodd"/>
    <path id="Path_548" data-name="Path 548" d="M105.919,193.279c-5.667,1.366-11.074,2.048-16.285.174,3.432,3.608,9.981,2.434,16.285-.174" transform="translate(-45.792 -98.742)" fill-rule="evenodd"/>
    <path id="Path_549" data-name="Path 549" d="M90.385,132.884c.325.908,5.033,3.081,6.176,3.223,2.949.37,4.768-.819,7.7-2.819-3.776,1.271-6.4,1.669-7.392,1.544a10.105,10.105,0,0,1-4.36-2.574c1.176-1.861,3.319-5.273,3.673-7.518.378-2.389-.235-5.077-.771-7.343-.038,2.169.33,5.232-.31,7.084a52.935,52.935,0,0,1-4.719,8.4" transform="translate(-46.176 -59.975)" fill-rule="evenodd"/>
    <path id="Path_550" data-name="Path 550" d="M152.205,136.231c-3.607-4.445-12.917-3.743-20.163.406,4.813-1.415,15.217-3.672,20.163-.406" transform="translate(-67.457 -68.048)" fill-rule="evenodd"/>
    <path id="Path_551" data-name="Path 551" d="M100.221,5.091A38.121,38.121,0,0,1,114.683,6.52q.3-.216.6-.4a7.584,7.584,0,0,1,3.625-1.194c-9.124-2.853-20.865-2.514-27.027-.62-.563.869-1.145,1.8-1.716,2.775l-.023.039a41.508,41.508,0,0,1,10.077-2.031m42.148,39.235A39.956,39.956,0,0,0,139.088,41q-.408-.372-.832-.741a20.33,20.33,0,0,1-.221,6.88c1.2,1.109,2.519,2.92,4.009,3.61a29.84,29.84,0,0,0,.325-6.419M135.6,24.581a9.323,9.323,0,0,1,2.383,1.267c1.814,4.29,2.062,9.174,2.636,14.363-.56-.529-1.172-1.058-1.827-1.582q-.412-.329-.846-.656a38.5,38.5,0,0,0-2.39-8.283q-.278-.675-.576-1.328a37.58,37.58,0,0,0-1.989-3.786,6.129,6.129,0,0,1,2.608.005m-10.53-8.789a27.691,27.691,0,0,1,7.2,7.636c1.1-.289,1.748-.41,1.695-.515a31.465,31.465,0,0,0-4.433-6.628l-1.028-.205a15.543,15.543,0,0,0-3.434-.288M75.848,19.2a9.694,9.694,0,0,1-.309-1.788,9.988,9.988,0,0,1-.021-1.288,34.5,34.5,0,0,0-5.047,8.344c.49-.1,1.029-.217,1.621-.337A16.725,16.725,0,0,1,75.848,19.2m9.88-6.285c.418-1.063.891-2.112,1.4-3.138A29.356,29.356,0,0,0,79.315,14.9a10.714,10.714,0,0,0-.435,2.072,22.46,22.46,0,0,1,6.848-4.058" transform="translate(-36.003 -1.449)" fill="#fff6c6" fill-rule="evenodd"/>
    <path id="Path_552" data-name="Path 552" d="M108.048,149.745a2.39,2.39,0,0,0,1.53-.226c.754-.286,1.658-.519,1.658-.519.927-1.028.847-2.277.434-2.1-1.154.491-3.828,2.764-3.622,2.847" transform="translate(-55.194 -75.038)" fill-rule="evenodd"/>
    <path id="Path_553" data-name="Path 553" d="M100.953,151.008a1.187,1.187,0,0,1-.964-.006,7.76,7.76,0,0,0-1.018-.229c-.5-.721-.339-1.736-.09-1.642a5.846,5.846,0,0,1,2.071,1.877" transform="translate(-50.395 -76.185)" fill-rule="evenodd"/>
    <path id="Path_554" data-name="Path 554" d="M171.88,38.854a3.686,3.686,0,0,0,.616-3.5c-.294-.664-1.286-1.078-1.98-1.313a12.163,12.163,0,0,0-4.678-.3c-.614.082-1.352.54-1.054,1.212a1.535,1.535,0,0,0,1.491.863c2.079.08,5.364,4.377,5.6,3.041m-7.456-1.2c-2.961-1.129,2.86-1.554,2.76-.417s-1.271.985-2.76.417" transform="translate(-83.571 -17.187)" fill="#fff6c6" fill-rule="evenodd"/>
  </g>
</svg>
